<?xml version="1.0" standalone="no"?>
<!DOCTYPE svg PUBLIC "-//W3C//DTD SVG 1.1//EN" "http://www.w3.org/Graphics/SVG/1.1/DTD/svg11.dtd" >
<svg xmlns="http://www.w3.org/2000/svg">
<metadata>Generated by IcoMoon</metadata>
<defs>
<font id="icomoon" horiz-adv-x="1024">
<font-face units-per-em="1024" ascent="960" descent="-64" />
<missing-glyph horiz-adv-x="1024" />
<glyph unicode="&#x20;" horiz-adv-x="512" d="" />
<glyph unicode="&#xe900;" glyph-name="Aircraft-Seat-Middle" d="M40.96 796.16v-40.96h102.4c11.572 0 20.48-8.908 20.48-20.48v-266.24c-0.287 0.014-0.622 0.023-0.96 0.023s-0.673-0.008-1.007-0.024c-10.407-1.013-18.513-9.755-18.513-20.39 0-0.031 0-0.062 0-0.093v-81.915h-102.4v-40.96h122.88c11.31 0.001 20.479 9.17 20.48 20.48v81.92h20.48v-163.84h-163.84v-40.96h163.84c22.386 0 40.96 18.574 40.96 40.96v184.32c-0.001 11.31-9.17 20.479-20.48 20.48h-20.48v266.24c0 33.689-27.751 61.44-61.44 61.44h-102.4zM389.12 796.16c-33.689 0-61.44-27.751-61.44-61.44v-266.24h-20.48c-0.287 0.014-0.622 0.023-0.96 0.023s-0.673-0.008-1.007-0.024c-10.407-1.013-18.513-9.755-18.513-20.39 0-0.031 0-0.062 0-0.093v-184.315c0-22.386 18.574-40.96 40.96-40.96h368.64c22.386 0 40.96 18.574 40.96 40.96v184.32c-0.001 11.31-9.17 20.479-20.48 20.48h-20.48v266.24c0 33.689-27.751 61.44-61.44 61.44h-245.76zM880.64 796.16c-33.689 0-61.44-27.751-61.44-61.44v-266.24h-20.48c-0.287 0.014-0.622 0.023-0.96 0.023s-0.673-0.008-1.007-0.024c-10.407-1.013-18.513-9.755-18.513-20.39 0-0.031 0-0.062 0-0.093v-184.315c0-22.386 18.574-40.96 40.96-40.96h163.84v40.96h-163.84v163.84h20.48v-81.92c0.001-11.31 9.17-20.479 20.48-20.48h122.88v40.96h-102.4v81.92c-0.001 11.31-9.17 20.479-20.48 20.48v266.24c0 11.572 8.908 20.48 20.48 20.48h102.4v40.96h-102.4zM389.12 755.2h245.76c11.572 0 20.48-8.908 20.48-20.48v-266.24c-11.31-0.001-20.479-9.17-20.48-20.48v-81.92h-245.76v81.92c-0.001 11.31-9.17 20.479-20.48 20.48v266.24c0 11.572 8.908 20.48 20.48 20.48zM327.68 427.52h20.48v-81.92c0.001-11.31 9.17-20.479 20.48-20.48h286.72c11.31 0.001 20.479 9.17 20.48 20.48v81.92h20.48v-163.84h-368.64v163.84zM143.36 202.24c0-17.098 5.617-36.002 10.88-54.4 1.106-3.866 1.504-3.535 2.56-7.040h-115.84v-40.96h143.36c11.201 0.145 20.225 9.259 20.225 20.48 0 2.288-0.375 4.489-1.068 6.544 0.042-0.144-4.581 15.1-9.558 32.496s-9.6 39.314-9.6 42.88h-40.96zM348.16 202.24c0-3.566-4.623-25.484-9.6-42.88s-9.6-32.64-9.6-32.64c-0.65-1.91-1.025-4.111-1.025-6.4 0-11.222 9.024-20.336 20.212-20.48h327.694c11.201 0.145 20.225 9.259 20.225 20.48 0 2.288-0.375 4.489-1.068 6.544 0.042-0.144-4.582 15.112-9.558 32.496s-9.6 39.246-9.6 42.88h-40.96c0-17.112 5.616-36.010 10.88-54.4 1.106-3.864 1.504-3.537 2.56-7.040h-272.64c1.056 3.505 1.454 3.174 2.56 7.040 5.263 18.398 10.88 37.302 10.88 54.4h-40.96zM839.68 202.24c0-3.566-4.623-25.484-9.6-42.88s-9.6-32.64-9.6-32.64c-0.65-1.91-1.025-4.111-1.025-6.4 0-11.222 9.024-20.336 20.212-20.48h143.374v40.96h-115.84c1.056 3.505 1.454 3.174 2.56 7.040 5.263 18.398 10.88 37.302 10.88 54.4h-40.96z" />
<glyph unicode="&#xe901;" glyph-name="Aircraft-Seat-Window" d="M40.96 796.16v-40.96h102.4c11.572 0 20.48-8.908 20.48-20.48v-266.24c-0.287 0.014-0.622 0.023-0.96 0.023s-0.673-0.008-1.007-0.024c-10.407-1.013-18.513-9.755-18.513-20.39 0-0.031 0-0.062 0-0.093v-81.915h-102.4v-40.96h122.88c11.31 0.001 20.479 9.17 20.48 20.48v81.92h20.48v-163.84h-163.84v-40.96h163.84c22.386 0 40.96 18.574 40.96 40.96v184.32c-0.001 11.31-9.17 20.479-20.48 20.48h-20.48v266.24c0 33.689-27.751 61.44-61.44 61.44h-102.4zM389.12 796.16c-33.689 0-61.44-27.751-61.44-61.44v-266.24h-20.48c-0.287 0.014-0.622 0.023-0.96 0.023s-0.673-0.008-1.007-0.024c-10.407-1.013-18.513-9.755-18.513-20.39 0-0.031 0-0.062 0-0.093v-184.315c0-22.386 18.574-40.96 40.96-40.96h368.64c22.386 0 40.96 18.574 40.96 40.96v184.32c-0.001 11.31-9.17 20.479-20.48 20.48h-20.48v266.24c0 33.689-27.751 61.44-61.44 61.44h-245.76zM911.36 775.68c-5.362-0.194-10.574-1.011-16-2.56l-46.72-13.44c-29.43-8.404-49.92-35.304-49.92-65.92v-184.32c0-30.616 20.49-57.516 49.92-65.92l46.72-13.44c43.409-12.394 87.68 20.779 87.68 65.92v211.2c0 33.856-24.925 60.926-55.68 67.2-5.126 1.046-10.638 1.474-16 1.28zM389.12 755.2h245.76c11.572 0 20.48-8.908 20.48-20.48v-266.24c-11.31-0.001-20.479-9.17-20.48-20.48v-81.92h-245.76v81.92c-0.001 11.31-9.17 20.479-20.48 20.48v266.24c0 11.572 8.908 20.48 20.48 20.48zM913.92 734.72c15.483 0.852 28.16-10.893 28.16-27.52v-211.2c0-19.002-16.923-31.458-35.2-26.24l-46.72 13.44c-12.022 3.433-20.48 13.725-20.48 26.24v184.32c0 12.515 8.458 22.807 20.48 26.24l46.72 13.44c2.285 0.652 4.828 1.158 7.040 1.28zM327.68 427.52h20.48v-81.92c0.001-11.31 9.17-20.479 20.48-20.48h286.72c11.31 0.001 20.479 9.17 20.48 20.48v81.92h20.48v-163.84h-368.64v163.84zM143.36 202.24c0-17.098 5.617-36.002 10.88-54.4 1.106-3.866 1.504-3.535 2.56-7.040h-115.84v-40.96h143.36c11.201 0.145 20.225 9.259 20.225 20.48 0 2.288-0.375 4.489-1.068 6.544 0.042-0.144-4.581 15.1-9.558 32.496s-9.6 39.314-9.6 42.88h-40.96zM348.16 202.24c0-3.566-4.623-25.484-9.6-42.88s-9.6-32.64-9.6-32.64c-0.65-1.91-1.025-4.111-1.025-6.4 0-11.222 9.024-20.336 20.212-20.48h327.694c11.201 0.145 20.225 9.259 20.225 20.48 0 2.288-0.375 4.489-1.068 6.544 0.042-0.144-4.582 15.112-9.558 32.496s-9.6 39.246-9.6 42.88h-40.96c0-17.112 5.616-36.010 10.88-54.4 1.106-3.864 1.504-3.537 2.56-7.040h-272.64c1.056 3.505 1.454 3.174 2.56 7.040 5.263 18.398 10.88 37.302 10.88 54.4h-40.96z" />
<glyph unicode="&#xe902;" glyph-name="Alfabank" horiz-adv-x="657" d="M647.15 72.683h-637.031c-5.54 0-10.078-4.641-10.078-10.385v-115.872c0-5.785 4.518-10.426 10.078-10.426h637.051c5.581 0 10.078 4.641 10.078 10.426v115.872c-0.020 5.745-4.498 10.385-10.099 10.385zM30.317 314.731c5.704-2.126 100.233-38.801 105.712-40.968s11.142 1.124 12.961 6.113c1.819 4.947 41.193 113.235 45.629 125.378 12.941 0 255.336 0 268.297 0 4.436-12.143 43.401-120.267 45.323-125.378 1.942-5.193 7.789-8.075 13.022-6.113 5.172 1.963 99.252 38.535 105.671 40.968 6.44 2.433 7.4 9.302 5.929 13.411-5.438 14.903-186.544 510.753-194.313 531.953-18.297 49.963-40.232 99.885-109.903 99.885-69.732 0-92.424-50.679-110.107-99.885-9.097-25.452-187.444-513.329-194.088-531.953-1.881-5.193 0.511-11.346 5.867-13.411zM328.073 798.029h1.165l91.013-272.406h-182.905l90.727 272.406z" />
<glyph unicode="&#xe903;" glyph-name="Archive" d="M122.88 960v-1024h778.24v1024h-778.24zM163.84 919.040h286.72v-435.2c-3.237-1.721-6.341-3.781-8.96-6.4-7.722-7.722-11.52-18.745-11.52-29.44v-40.96c0-10.695 3.798-21.718 11.52-29.44 1.177-1.177 2.522-2.205 3.84-3.2-3.701-10.49-6.993-18.991-14.080-40.96-5.199-16.117-10.713-33.011-14.72-48.64s-7.040-29.141-7.040-41.6c0-56.227 46.173-102.4 102.4-102.4s102.4 46.173 102.4 102.4c0 12.459-3.033 25.971-7.040 41.6s-9.521 32.523-14.72 48.64c-7.087 21.969-10.379 30.47-14.080 40.96 1.318 0.995 2.663 2.023 3.84 3.2 7.722 7.722 11.52 18.745 11.52 29.44v40.96c0 10.695-3.798 21.718-11.52 29.44-2.619 2.619-5.723 4.679-8.96 6.4v435.2h286.72v-942.080h-696.32v942.080zM491.52 919.040h20.48v-40.96h20.48v-81.92h-20.48v-40.96h20.48v-81.92h-20.48v-40.96h20.48v-81.92h-20.48v-40.96h20.48v-20.48h-40.96v81.92h20.48v40.96h-20.48v81.92h20.48v40.96h-20.48v81.92h20.48v40.96h-20.48v61.44zM471.040 448h81.92v-40.96h-81.92v40.96zM485.76 366.080h52.48c3.147-8.659 8.209-21.288 16-45.44 5.041-15.627 9.767-31.757 13.44-46.080s5.76-27.435 5.76-31.36c0-33.885-27.555-61.44-61.44-61.44s-61.44 27.555-61.44 61.44c0 3.925 2.087 17.037 5.76 31.36s8.399 30.453 13.44 46.080c7.791 24.152 12.853 36.781 16 45.44zM512 273.92c-16.966 0-30.72-13.754-30.72-30.72s13.754-30.72 30.72-30.72c16.966 0 30.72 13.754 30.72 30.72s-13.754 30.72-30.72 30.72z" />
<glyph unicode="&#xe904;" glyph-name="Assistant" d="M593.92 943.36c-147.456 0-298.55-44.983-410.24-187.52s-183.68-378.971-183.68-758.4c-0.001-0.074-0.002-0.162-0.002-0.249 0-11.312 9.17-20.482 20.482-20.482 1.13 0 2.238 0.091 3.318 0.267-0.118-0.016 118.744 20.464 344.842 20.464 0.191-0.006 0.415-0.010 0.64-0.010s0.449 0.004 0.673 0.011c39.825-37.076 86.595-61.441 142.047-61.441 55.526 0 106.194 23.962 149.76 61.44 0.095-0.002 0.207-0.002 0.32-0.002s0.225 0.001 0.337 0.003c0.462-0.040 1.020-0.063 1.583-0.063s1.121 0.023 1.673 0.067c221.907-0.005 334.007-20.485 334.007-20.485 1.155-0.231 2.483-0.363 3.841-0.363 11.312 0 20.482 9.17 20.482 20.482 0 0.127-0.001 0.254-0.003 0.38 0 101.517-8.947 173.055-17.92 219.501-6.48 33.544-12.082 50.361-15.36 59.52 8.002 14.565 12.8 30.967 12.8 48.64v61.44c0 33.068-16.367 62.514-40.96 81.28-1.117 113.283-34.945 214.722-94.72 288.64-57.544 71.159-140.375 115.036-237.44 119.68l-16.64 53.12c-2.772 8.248-10.433 14.084-19.457 14.084-0.135 0-0.269-0.001-0.403-0.004zM579.2 901.12l15.36-49.92c2.772-8.248 10.433-14.084 19.457-14.084 0.135 0 0.269 0.001 0.403 0.004 92.311 0 167.527-39.595 221.42-106.24 49.657-61.406 80.56-146.668 85.12-243.84-6.453 1.291-13.028 1.92-19.84 1.92h-40.96c-0.287 0.014-0.622 0.023-0.96 0.023s-0.673-0.008-1.007-0.024c-10.407-1.013-18.513-9.755-18.513-20.39 0-0.031 0-0.062 0-0.093v-37.115c-10.826 5.184-21.312 7.488-28.8 8.32-24.576 30.72-126.848 159.872-176 284.8-4.096 8.192-10.24 14.208-20.48 12.16-8.192 0-16.512-5.888-18.56-14.080-20.48-73.728-190.592-289.024-366.72-293.12-10.24 2.048-34.432 6.144-56.96-10.24-20.48-16.384-28.8-39.040-28.8-69.76 0-47.104 30.464-85.76 75.52-96 27.262-71.3 63.918-153.114 113.28-215.68-172.016-1.587-262.671-13.28-289.92-17.28 3.149 359.236 72.433 580.856 173.44 709.76 99.657 127.182 229.526 168.028 363.52 170.88zM614.4 664.96c61.44-131.072 163.584-251.776 167.68-257.92 4.096-4.096 10.496-8.32 16.64-8.32 0 0 29.207-0.427 40.96-24.96v-48.64c0-26.624-51.2-32.64-51.2-32.64-8.192 0-16.512-8.448-18.56-16.64-10.24-47.104-26.752-92.032-49.28-135.040h45.44c16.384 36.864 30.848 75.776 39.040 112.64 12.452 2.621 23.954 7.175 34.56 12.8v-23.040c0.001-11.31 9.17-20.479 20.48-20.48h20.48c0-56.413-45.987-102.4-102.4-102.4h-167.68c-8.563 23.672-31.132 40.96-57.6 40.96h-40.96c-33.699 0-61.44-27.741-61.44-61.44s27.741-61.44 61.44-61.44h40.96c26.468 0 49.037 17.288 57.6 40.96h167.68c78.755 0 143.36 64.605 143.36 143.36v1.92c13.75 2.84 26.585 8.209 37.76 16 2.149-8.464 3.935-18.598 6.4-31.36 7.648-39.588 15.253-103.348 16.64-188.16-26.686 4.086-112.944 15.113-280.32 16.64 5.837 6.885 11.181 13.772 16.64 21.12h-53.12c-43.008-49.152-96.256-81.92-153.6-81.92-98.304 0-182.016 98.56-259.84 303.36-2.048 8.192-10.496 12.16-16.64 12.16-28.672 2.048-51.2 26.24-51.2 56.96 0 12.288 2.048 29.056 10.24 35.2s24.32 3.84 24.32 3.84h6.4c169.984 0 331.776 167.936 389.12 276.48zM880.64 448h20.48c33.885 0 61.44-27.555 61.44-61.44v-61.44c0-12.203-3.444-23.71-9.6-33.28-1.225-1.299-2.289-2.771-3.146-4.37-11.303-14.576-28.986-23.79-48.694-23.79h-20.48v106.88c1.404 4.113 1.707 8.96 0 14.080v63.36zM512 120.32h40.96c11.357 0 20.48-9.123 20.48-20.48s-9.123-20.48-20.48-20.48h-40.96c-11.357 0-20.48 9.123-20.48 20.48s9.123 20.48 20.48 20.48z" />
<glyph unicode="&#xe905;" glyph-name="Basilica" d="M480 832v-35c-72.727-14.987-128-80.014-128-157v-96h96v96h-32c0 53.391 42.609 96 96 96s96-42.609 96-96h-32v-96h96v96c0 76.986-55.273 142.013-128 157v35h-64zM192 704v-38c-36.984-13.383-64-48.656-64-90v-32h64v32c0 18.081 13.919 32 32 32s32-13.919 32-32v-32h64v32c0 41.344-27.016 76.617-64 90v38h-64zM768 704v-38c-36.984-13.383-64-48.656-64-90v-32h64v32c0 18.081 13.919 32 32 32s32-13.919 32-32v-32h64v32c0 41.344-27.016 76.617-64 90v38h-64zM480 640v-96h64v96h-64zM128 512v-448h320v137l64 22 64-22v-137h320v448h-768zM192 448h640v-320h-192v119l-22 7-96 32-10 4-10-4-96-32-22-7v-119h-192v320zM256 384v-64h64v64h-64zM384 384v-64h64v64h-64zM576 384v-64h64v64h-64zM704 384v-64h64v64h-64zM256 256v-64h64v64h-64zM704 256v-64h64v64h-64z" />
<glyph unicode="&#xe906;" glyph-name="Bus-2" d="M245.76 960c-63.39 0-109.688-8.172-141.44-35.84s-42.88-71.288-42.88-128v-81.92h-20.48c-22.386 0-40.96-18.574-40.96-40.96v-163.84c0-22.386 18.574-40.96 40.96-40.96h20.48v-348.16c0-25.037 7.805-46.065 20.48-62.080v-60.8c0-33.703 27.76-61.44 61.44-61.44h81.92c33.691 0 61.44 27.749 61.44 61.44v20.48h450.56v-20.48c0-33.691 27.749-61.44 61.44-61.44h81.92c33.691 0 61.44 27.749 61.44 61.44v60.8c12.675 16.015 20.48 37.043 20.48 62.080v348.16h20.48c22.386 0 40.96 18.599 40.96 40.96v163.84c0 22.361-18.574 40.96-40.96 40.96h-20.48v61.44c0 54.171-4.301 98.51-26.24 132.48s-62.044 51.84-117.12 51.84h-573.44zM245.76 919.040h573.44c47.324 0 68.659-11.115 82.56-32.64s19.84-59.194 19.84-110.72v-655.36c0-28.374-8.181-39.586-24.96-48.64s-44.943-12.8-77.44-12.8h-614.4c-32.497 0-60.661 3.746-77.44 12.8s-24.96 20.266-24.96 48.64v675.84c0 51.546 9.352 79.693 28.8 96.64s55.070 26.24 114.56 26.24zM307.2 898.56c-22.386 0-40.96-18.574-40.96-40.96v-40.96c0-22.386 18.574-40.96 40.96-40.96h430.080c22.386 0 40.96 18.599 40.96 40.96v40.96c0 22.361-18.574 40.96-40.96 40.96h-430.080zM307.2 857.6h430.080v-40.96h-430.080v40.96zM225.28 755.2c-23.893 0-45.733-6.053-60.8-21.12s-21.12-36.907-21.12-60.8v-245.76c0-23.893 6.053-45.733 21.12-60.8s36.907-21.12 60.8-21.12l573.44 1.28c16.733 0 34.698 6.393 51.2 19.2s30.72 34.294 30.72 61.44v245.76c0 23.893-6.053 45.733-21.12 60.8s-36.907 21.12-60.8 21.12h-573.44zM225.28 714.24h573.44c17.067 0 25.947-4.187 31.36-9.6s9.6-14.293 9.6-31.36v-245.76c0-13.814-5.863-21.926-14.72-28.8s-21.53-10.88-26.24-10.88l-573.44-1.28c-17.067 0-25.947 4.187-31.36 9.6s-9.6 14.293-9.6 31.36v245.76c0 17.067 4.187 25.947 9.6 31.36s14.293 9.6 31.36 9.6zM40.96 673.28h20.48v-163.84h-20.48v163.84zM962.56 673.28h20.48v-163.84h-20.48v163.84zM235.52 284.16c-50.656 0-92.16-41.504-92.16-92.16s41.504-92.16 92.16-92.16c50.656 0 92.16 41.504 92.16 92.16s-41.504 92.16-92.16 92.16zM788.48 284.16c-50.656 0-92.16-41.504-92.16-92.16s41.504-92.16 92.16-92.16c50.656 0 92.16 41.504 92.16 92.16s-41.504 92.16-92.16 92.16zM235.52 243.2c28.52 0 51.2-22.68 51.2-51.2s-22.68-51.2-51.2-51.2c-28.52 0-51.2 22.68-51.2 51.2s22.68 51.2 51.2 51.2zM788.48 243.2c28.52 0 51.2-22.68 51.2-51.2s-22.68-51.2-51.2-51.2c-28.52 0-51.2 22.68-51.2 51.2s22.68 51.2 51.2 51.2zM122.88 29.44c24.583-9.276 52.553-11.52 81.92-11.52h40.96v-20.48c0-11.529-8.951-20.48-20.48-20.48h-81.92c-11.498 0-20.48 8.963-20.48 20.48v32zM901.12 29.44v-32c0-11.529-8.951-20.48-20.48-20.48h-81.92c-11.529 0-20.48 8.951-20.48 20.48v20.48h40.96c29.367 0 57.337 2.244 81.92 11.52z" />
<glyph unicode="&#xe907;" glyph-name="Bus" d="M288 832c-70.315 0-128-57.685-128-128v-160h-64v-96h64v-352c0-17.664 14.336-32 32-32h96l11 32h426l11-32h96c17.664 0 32 14.336 32 32v352h64v96h-64v160c0 70.315-57.685 128-128 128h-448zM288 768h448c35.733 0 64-28.267 64-64h-576c0 35.733 28.267 64 64 64zM224 640h256v-224h-256v224zM544 640h256v-224h-256v224zM224 352h576v-192h-576v192zM256 288v-64h128v64h-128zM640 288v-64h128v64h-128z" />
<glyph unicode="&#xe908;" glyph-name="Business" d="M512 919.040c-50.678 0-95.9-14.985-129.28-40.32-27.768-21.076-47.295-49.81-53.12-82.56h-268.16c-33.689 0-61.44-27.751-61.44-61.44v-344.32c-0.057-0.576-0.090-1.244-0.090-1.92s0.033-1.344 0.097-2.004l-0.007-348.076c0-33.689 27.751-61.44 61.44-61.44h901.12c33.689 0 61.44 27.751 61.44 61.44v350.080c0.014 0.287 0.023 0.622 0.023 0.96s-0.008 0.673-0.024 1.007l0.002 344.273c0 33.689-27.751 61.44-61.44 61.44h-268.16c-5.825 32.75-25.352 61.484-53.12 82.56-33.38 25.335-78.602 40.32-129.28 40.32zM512 878.080c42.629 0 79.107-12.863 104.32-32 18.71-14.201 31.308-31.069 36.48-49.92h-281.6c5.172 18.851 17.77 35.719 36.48 49.92 25.213 19.137 61.691 32 104.32 32zM61.44 755.2h901.12c11.572 0 20.48-8.908 20.48-20.48v-344.32c-0.026-0.383-0.040-0.83-0.040-1.28s0.015-0.897 0.043-1.34l-0.003-1.22c0-11.572-8.908-20.48-20.48-20.48h-348.16c0 33.689-27.751 61.44-61.44 61.44h-81.92c-33.689 0-61.44-27.751-61.44-61.44h-348.16c-11.572 0-20.48 8.908-20.48 20.48 0.057 0.576 0.090 1.244 0.090 1.92s-0.033 1.344-0.097 2.004l0.007 344.236c0 11.572 8.908 20.48 20.48 20.48zM471.040 386.56h81.92c11.572 0 20.48-8.908 20.48-20.48v-16.64c-0.014-0.287-0.023-0.622-0.023-0.96s0.008-0.673 0.024-1.007l-0.002-1.873c-0.078-0.672-0.123-1.451-0.123-2.24s0.045-1.568 0.132-2.334l-0.009-15.906c0-11.572-8.908-20.48-20.48-20.48h-81.92c-11.572 0-20.48 8.908-20.48 20.48v16.64c0.271 1.251 0.427 2.687 0.427 4.16s-0.155 2.909-0.451 4.294l0.024 15.866c0 11.572 8.908 20.48 20.48 20.48zM40.96 328.96c6.467-2.34 13.251-3.84 20.48-3.84h348.16c0-33.689 27.751-61.44 61.44-61.44h81.92c33.689 0 61.44 27.751 61.44 61.44h348.16c7.229 0 14.013 1.5 20.48 3.84v-290.56c0-11.572-8.908-20.48-20.48-20.48h-901.12c-11.572 0-20.48 8.908-20.48 20.48v290.56z" />
<glyph unicode="&#xe909;" glyph-name="Calendar" d="M288 832v-32h-128v-704h704v704h-128v32h-64v-32h-320v32h-64zM224 736h64v-32h64v32h320v-32h64v32h64v-64h-576v64zM224 608h576v-448h-576v448zM416 544v-64h64v64h-64zM544 544v-64h64v64h-64zM672 544v-64h64v64h-64zM288 416v-64h64v64h-64zM416 416v-64h64v64h-64zM544 416v-64h64v64h-64zM672 416v-64h64v64h-64zM288 288v-64h64v64h-64zM416 288v-64h64v64h-64zM544 288v-64h64v64h-64z" />
<glyph unicode="&#xe90a;" glyph-name="Chance-of-Storm" d="M224 768v-99c-20.295-4.182-39.203-12.824-56-24l-70 71-46-46 71-70c-11.176-16.797-19.818-35.705-24-56h-99v-64h99c4.201-20.386 12.774-39.19 24-56l-71-70 46-46 70 71c9.671-6.402 20.041-11.788 31-16-3.841-13.718-7-28.074-7-43 0-88.224 71.776-160 160-160h192v64h-192c-52.928 0-96 43.072-96 96s43.072 96 96 96h32v32c0 35.296 28.584 63.84 61 64l32-2 6 27c11.968 59.488 64.296 103 125 103 51.36 0 97.808-30.704 118-78l9-22 29 3c1.408 0.224 2.528 1 4 1 52.928 0 95.904-43.28 96-94l-1-31 25-6c42.592-10.848 72-49.352 72-93 0-52.928-43.072-96-96-96h-120l-30-64h150c88.224 0 160 71.776 160 160 0 64.608-38.792 122.2-97 147-9.056 77.376-73.96 137.896-153 141-33.984 59.072-96.688 96-166 96-82.656 0-155.792-53.488-182-130-7.39-1.265-14.097-2.523-21-5-4.212 10.959-9.598 21.329-16 31l71 70-46 46-70-71c-16.81 11.226-35.614 19.799-56 24v99h-64zM256 608c46.718 0 85.114-33.076 94-77 0.066-0.327-0.063-0.672 0-1-12.474-14.968-22.374-33.422-27-53-38.564-6.976-71.341-27.664-95-57-39.479 11.898-68 48.412-68 92 0 53.391 42.609 96 96 96zM608 496l-96-207 96-32v-177l96 208-96 32v176z" />
<glyph unicode="&#xe90b;" glyph-name="Check-File" d="M81.92 960v-983.040h491.52c0.086-0.001 0.188-0.002 0.29-0.002 11.312 0 20.482 9.17 20.482 20.482s-9.17 20.482-20.482 20.482c-0.102 0-0.203-0.001-0.305-0.002h-450.545v901.12h368.64v-286.72h286.72v-389.12c-0.001-0.086-0.002-0.188-0.002-0.29 0-11.312 9.17-20.482 20.482-20.482s20.482 9.17 20.482 20.482c0 0.102-0.001 0.203-0.002 0.305v417.905l-5.76 6.4-286.72 286.72-6.4 5.76h-438.4zM532.48 889.6l216.32-216.32h-216.32v216.32zM976.64 396.16l-10.88-16.64-238.72-371.2-175.36 159.36-27.52-30.080 14.72-14.080 178.56-161.92 17.92-16 12.8 20.48 252.16 391.040 10.88 17.28-34.56 21.76z" />
<glyph unicode="&#xe90c;" glyph-name="Children-Faces" d="M368.64 796.8c-1.211-0.145-2.295-0.37-3.345-0.676-0.409-0.216-0.829-0.43-1.24-0.657 0.105 0.053-19.939-4.222-38.935-19.147-12.626-9.92-25.471-25.67-32.64-46.72-10.736 13.776-25.523 22.612-38.4 26.88-20.95 6.944-40.32 5.76-40.32 5.76-10.768-0.694-19.24-9.597-19.24-20.48 0-11.333 9.187-20.52 20.52-20.52 0.45 0 0.897 0.015 1.34 0.043-0.060-0.003 12.314 0.328 24.9-3.843 5.809-1.925 11.104-4.702 15.36-8.32-112.187-22.009-205.59-114.549-213.76-225.28-4.279-1.648-8.481-3.039-13.44-6.4-14.684-9.952-29.44-30.732-29.44-60.16 0-29.943 21.657-51.732 48.64-60.8 28.6-103.661 122.542-160.209 208-176 14.055-11.336 31.167-19.2 50.56-19.2s36.501 7.844 50.56 19.2c53.942 9.967 111.463 35.954 153.6 80 42.664-44.275 100.103-69.907 154.24-80 14.119-11.556 31.616-19.2 51.2-19.2 19.393 0 36.501 7.844 50.56 19.2 85.455 15.79 179.401 72.322 208 176 26.991 9.053 48.64 30.857 48.64 60.8 0 27.866-14.816 48.024-28.8 58.24-6.049 4.419-11.193 6.978-16 8.96-14.424 117.83-115.944 217.357-239.36 228.48 3.893 14.911 11.943 24.013 20.48 30.72 11.724 9.211 22.4 12.16 22.4 12.16 10.376 1.165 18.368 9.89 18.368 20.481 0 11.378-9.224 20.602-20.602 20.602-0.791 0-1.572-0.045-2.34-0.131-1.117-0.137-2.201-0.361-3.251-0.668-0.409-0.216-0.829-0.43-1.24-0.657 0.105 0.053-19.939-4.222-38.935-19.147-12.626-9.92-25.471-25.67-32.64-46.72-10.736 13.776-25.523 22.612-38.4 26.88-20.95 6.944-40.32 5.76-40.32 5.76-10.768-0.694-19.24-9.597-19.24-20.48 0-11.333 9.187-20.52 20.52-20.52 0.45 0 0.897 0.015 1.34 0.043-0.060-0.003 12.314 0.328 24.9-3.843 5.99-1.986 11.675-4.502 16-8.32-61.783-11.886-117.642-45.035-157.44-90.88-44.151 52.009-107.885 88.293-179.2 94.72 3.893 14.911 11.943 24.013 20.48 30.72 11.724 9.211 22.4 12.16 22.4 12.16 10.376 1.165 18.368 9.89 18.368 20.481 0 11.378-9.224 20.602-20.602 20.602-0.791 0-1.572-0.045-2.34-0.131zM303.36 673.28c0.672-0.078 1.451-0.123 2.24-0.123s1.568 0.045 2.334 0.132c116.103-0.368 218.659-98.47 224.546-206.089l1.28-19.2h16.64c0.551-0.174 1.138-0.343 1.92-0.64 2.54-0.966 5.737-2.766 8.96-5.12 6.445-4.709 12.16-10.125 12.16-24.96 0-14.615-11.261-25.86-25.6-26.88l-14.72-1.28-3.84-14.72c-20.878-91.615-105.412-141.685-182.4-154.88l-6.4-0.64-4.48-4.48c-7.442-7.373-17.453-12.16-28.8-12.16s-21.356 4.798-28.8 12.16l-4.48 4.48-6.4 0.64c-76.985 13.195-161.523 63.286-182.4 154.88l-3.84 14.72-14.72 1.28c-14.349 1.033-25.6 12.265-25.6 26.88 0 17.594 5.776 22.347 11.52 26.24 2.872 1.946 6.024 3.168 8.32 3.84 1.148 0.336 2.051 0.548 2.56 0.64h18.56v20.48c0 99.291 92.939 189.71 199.040 202.88 1.939-0.671 4.173-1.058 6.497-1.058 3.474 0 6.747 0.865 9.613 2.392 2.027 0.050 4.145 0.547 6.289 0.586zM712.96 673.28c0.672-0.078 1.451-0.123 2.24-0.123s1.568 0.045 2.334 0.132c1.186-0.013 2.47 0.019 3.746-0.009 114.61-2.473 214.978-99.647 220.8-206.080l1.28-19.2h16.64c0.551-0.174 1.138-0.343 1.92-0.64 2.54-0.966 5.737-2.766 8.96-5.12 6.445-4.709 12.16-10.125 12.16-24.96 0-14.615-11.261-25.86-25.6-26.88l-14.72-1.28-3.84-14.72c-20.878-91.615-105.412-141.685-182.4-154.88l-6.4-0.64-4.48-4.48c-7.442-7.373-17.453-12.16-28.8-12.16s-21.358 4.787-28.8 12.16l-4.48 4.48-6.4 0.64c-49.824 8.543-103.503 33.693-140.16 74.24 12.245 18.655 22.352 39.345 28.8 62.72 24.423 8.192 44.406 26.825 48 52.48 3.32-1.228 7.133-1.92 10.88-1.92 16.966 0 30.72 13.754 30.72 30.72s-13.754 30.72-30.72 30.72c-9.132 0-17.413-3.915-23.040-10.24-4.858 7.125-10.407 13.194-16 17.28-6.049 4.419-11.193 6.978-16 8.96-4.323 35.317-16.966 69.028-35.2 99.2 36.698 46.074 93.781 79.709 154.88 87.68 0.191-0.006 0.415-0.010 0.64-0.010s0.449 0.004 0.673 0.011c1.906-0.671 4.14-1.059 6.465-1.059 3.474 0 6.747 0.865 9.613 2.392 2.051 0.052 4.123 0.546 6.289 0.586zM215.040 468.48c-16.966 0-30.72-13.754-30.72-30.72s13.754-30.72 30.72-30.72c16.966 0 30.72 13.754 30.72 30.72s-13.754 30.72-30.72 30.72zM399.36 468.48c-16.966 0-30.72-13.754-30.72-30.72s13.754-30.72 30.72-30.72c16.966 0 30.72 13.754 30.72 30.72s-13.754 30.72-30.72 30.72zM808.96 468.48c-16.966 0-30.72-13.754-30.72-30.72s13.754-30.72 30.72-30.72c16.966 0 30.72 13.754 30.72 30.72s-13.754 30.72-30.72 30.72zM232.96 346.88c-10.244-1.231-18.107-9.869-18.107-20.344 0-6.534 3.059-12.353 7.823-16.103 0.044-0.033 33.406-26.273 84.524-26.273s84.48 26.24 84.48 26.24c4.707 3.787 7.694 9.546 7.694 16.004 0 11.316-9.174 20.49-20.49 20.49-4.863 0-9.33-1.694-12.844-4.524 0.039 0.031-20.911-17.249-58.841-17.249s-58.88 17.28-58.88 17.28c-3.5 2.877-8.026 4.621-12.959 4.621-0.846 0-1.68-0.051-2.499-0.151zM642.56 346.88c-10.244-1.231-18.107-9.869-18.107-20.344 0-6.534 3.059-12.353 7.823-16.103 0.044-0.033 33.406-26.273 84.524-26.273s84.48 26.24 84.48 26.24c4.707 3.787 7.694 9.546 7.694 16.004 0 11.316-9.174 20.49-20.49 20.49-4.863 0-9.33-1.694-12.844-4.524 0.039 0.031-20.911-17.249-58.841-17.249s-58.88 17.28-58.88 17.28c-3.5 2.877-8.026 4.621-12.959 4.621-0.846 0-1.68-0.051-2.499-0.151z" />
<glyph unicode="&#xe90d;" glyph-name="Cloud-Lighting" d="M512 800c-103.232 0-192.904-72.216-217-171-39.904-15.456-73.008-47.056-90-86-111.904 8.512-205-80.696-205-191 0-105.888 86.112-192 192-192h256v7l-41 14c-21.088 7.008-38.816 22.776-48 43h-167c-70.592 0-128 57.408-128 128s57.408 128 128 128c8.864 0 17.888-0.728 28-3l32-7 6 31c7.872 35.392 36.576 63.552 72 72l21 5 3 21c11.488 77.888 79.376 137 158 137 60.608 0 115.576-33.696 143-88l12-25 27 9c14.944 5.248 28.624 8 42 8 70.592 0 128-57.408 128-128 0-1.216 0.16-2.816 0-4-0.288-2.176-0.808-3.76-1-6l-2-23 21-9c47.264-20.16 78-66.64 78-118 0-43.616-21.592-81.864-55-105l32-11c11.744-3.904 22.36-10.456 31-19 34.528 34.752 56 82.264 56 135 0 69.28-36.96 131.984-96 166-3.36 102.944-88.256 186-192 186-12.448 0-25.328-1.28-38-4-41.28 62.304-110.096 100-186 100zM560 464l-96-207 96-32v-177l96 208-96 32v176zM816 368l-96-207 96-32v-177l96 208-96 32v176z" />
<glyph unicode="&#xe90e;" glyph-name="Clouds" d="M512 800c-106.58 0-193.657-75.866-216-176-38.963-15.347-67.998-43.88-85-82-6.407 0.715-12.251 2-19 2-105.652 0-192-86.348-192-192s86.348-192 192-192h640c105.652 0 192 86.348 192 192 0 69.285-40.65 126.248-96 160 0 105.652-86.348 192-192 192-13.835 0-25.466-4.164-38-7-39.971 61.346-107.556 103-186 103zM512 736c62.664 0 116.617-35.822 143-88l12-25 27 9c13.986 4.914 27.78 8 42 8 71.052 0 128-56.948 128-128 0 0.288-0.44-2.495-1-10l-2-23 21-9c45.706-19.515 78-64.826 78-118 0-71.052-56.948-128-128-128h-640c-71.052 0-128 56.948-128 128s56.948 128 128 128c9.314 0 18.465-0.851 28-3l32-7 6 31c7.925 35.652 36.478 63.528 72 72l21 5 3 22c11.392 77.236 77.294 136 158 136z" />
<glyph unicode="&#xe90f;" glyph-name="Coach" d="M512 919.040c-15.643 0-28.942-8.858-35.84-21.76-115.155-7.899-185.6-53.993-224-117.12-41.551-68.306-47.184-152.237-47.36-225.92-0.026-0.383-0.040-0.83-0.040-1.28s0.015-0.897 0.043-1.34c-0.003-0.354-0.003-0.806-0.003-1.22-0.026-0.383-0.040-0.83-0.040-1.28s0.015-0.897 0.043-1.34c0.15-24.601 2.383-45.469 7.037-63.3 1.484-16.755 3.099-43.636 5.76-64.64-6.418-5.233-12.842-9.523-19.2-19.2-9.856-15.001-17.057-36.112-14.080-61.44 8.625-73.181 54.543-99.348 69.76-106.88 5.865-34.223 23.512-76.465 52.48-119.68 31.033-46.295 73.916-90.789 126.080-115.84 0.963-0.462 1.59-1.471 2.56-1.92 18.791-22.442 45.366-38.4 76.8-38.4 31.456 0 58.005 15.936 76.8 38.4 0.966 0.449 1.601 1.457 2.56 1.92 51.991 25.098 94.034 69.554 124.8 115.84 28.676 43.141 45.978 85.57 51.84 119.68 15.026 7.153 62.337 32.561 71.040 106.24 3.001 25.413-4.779 46.941-14.72 62.080-6.483 9.873-12.671 13.87-19.2 19.2 2.927 20.308 4.71 45.566 6.4 64.64 4.869 17.561 7.478 38.462 7.68 62.72 0.040 0.479 0.063 1.037 0.063 1.6s-0.023 1.121-0.067 1.673c0.005 74.495-5.101 160.224-47.355 229.687-38.4 63.127-108.845 109.221-224 117.12-6.898 12.903-20.197 21.76-35.84 21.76zM512 857.6c127.45 0 189.593-40.945 224.64-98.56 30.845-50.707 38.077-117.729 39.68-182.4-34.309 9.505-132.906 35.2-264.32 35.2s-230.011-25.695-264.32-35.2c1.603 64.671 8.835 131.693 39.68 182.4 35.047 57.615 97.19 98.56 224.64 98.56zM512 816.64c-33.689 0-61.44-27.751-61.44-61.44v-40.96c0-33.689 27.751-61.44 61.44-61.44s61.44 27.751 61.44 61.44h-40.96c0-11.572-8.908-20.48-20.48-20.48s-20.48 8.908-20.48 20.48v40.96c0 11.572 8.908 20.48 20.48 20.48s20.48-8.908 20.48-20.48h40.96c0 33.689-27.751 61.44-61.44 61.44zM512 570.88c124.422 0 231.603-26.487 265.6-35.84-0.519-9.508-1.217-18.167-2.56-25.6-1.776-2.725-2.933-6.004-3.196-9.532-0.13-1.394-0.513-3.731-0.644-5.188-3.36-11.256-7.367-19.802-12.16-25.6-10.625-12.853-24.657-18.143-48-19.2-46.687-2.113-120.059 18.56-199.040 18.56-79.269 0-152.496-22.528-199.040-21.12-23.272 0.704-37.389 6.155-48 19.2-5.306 6.523-9.966 15.808-13.44 29.44-0.053 3.030-0.755 5.883-1.973 8.444-1.653 8.53-2.561 18.96-3.147 30.596 33.997 9.353 141.178 35.84 265.6 35.84zM512 427.52c71.424 0 141.888-21.234 200.96-18.56 17.961 0.813 35.647 4.134 51.2 12.16-0.203-1.292-0.436-4.059-0.64-5.12-0.2-1.075-0.314-2.311-0.314-3.575 0-7.408 3.933-13.897 9.824-17.494 3.619-2.241 11.654-8.627 17.37-17.331s9.492-19.218 7.68-34.56c-7.8-66.037-53.76-78.72-53.76-78.72-7.606-2.505-13.169-9.141-14.072-17.187-2.383-22.721-19.561-68.656-48.008-111.453s-67.603-83.628-110.72-103.68c-3.416-1.603-6.227-4.004-8.275-6.971-11.094-16.565-29.789-27.589-51.245-27.589-21.44 0-40.151 11.038-51.2 27.52-2.093 3.036-4.904 5.437-8.195 6.987-43.44 20.093-82.782 60.914-111.485 103.733s-46.284 88.827-48.64 111.36c-1.040 7.736-6.27 14.035-13.298 16.595-0.142 0.045-46.108 13.912-53.902 80.045-1.816 15.448 2.115 26.091 7.68 34.56s12.943 14.343 16.64 16.64c5.982 3.648 9.914 10.137 9.914 17.545 0 1.263-0.114 2.5-0.333 3.7-0.099 0.591 0.137 2.279 0.019 3.075 15.913-8.196 34.17-11.606 52.48-12.16 59.214-1.792 129.184 20.48 200.32 20.48zM399.36 386.56c-16.966 0-30.72-13.754-30.72-30.72s13.754-30.72 30.72-30.72c16.966 0 30.72 13.754 30.72 30.72s-13.754 30.72-30.72 30.72zM624.64 386.56c-16.966 0-30.72-13.754-30.72-30.72s13.754-30.72 30.72-30.72c16.966 0 30.72 13.754 30.72 30.72s-13.754 30.72-30.72 30.72zM491.52 202.24c-2.798 0-5.67-0.088-8.32-0.64-36.899-1.29-56.96-4.48-56.96-4.48-9.564-1.87-16.682-10.184-16.682-20.16 0-11.334 9.188-20.522 20.522-20.522 1.358 0 2.685 0.132 3.97 0.384-0.13-0.021 6.274 0.904 16.51 1.899v-58.88c0-22.386 18.574-40.96 40.96-40.96h40.96c22.386 0 40.96 18.574 40.96 40.96v58.88c10.236-0.995 16.64-1.92 16.64-1.92 1.155-0.231 2.482-0.362 3.84-0.362 11.334 0 20.522 9.188 20.522 20.522 0 9.976-7.118 18.29-16.553 20.139-0.13 0.021-21.187 3.275-59.65 4.501-1.875 0.27-3.818 0.64-5.76 0.64h-40.96zM512 161.28c7.849 0 13.876-0.478 20.48-0.64v-60.8h-40.96v60.8c6.604 0.162 12.631 0.64 20.48 0.64z" />
<glyph unicode="&#xe910;" glyph-name="Contacts" d="M512 832c-123.333 0-224-100.667-224-224 0-76.578 39.052-144.57 98-185-114.462-48.694-194-162.516-194-295h64c0 142.933 113.067 256 256 256s256-113.067 256-256h64c0 132.484-79.538 246.306-194 295 58.948 40.43 98 108.422 98 185 0 123.333-100.667 224-224 224zM512 768c88.745 0 160-71.255 160-160s-71.255-160-160-160c-88.745 0-160 71.255-160 160s71.255 160 160 160z" />
<glyph unicode="&#xe911;" glyph-name="Couple-Man-Woman" d="M234.24 781.44c-72.911 0-132.208-21.71-172.8-62.080s-61.44-98.674-61.44-166.4c0-16.162 3.963-37.635 8.96-60.8 3.961-18.364 9.076-34.253 13.44-48.64-3.782-3.504-7.233-4.791-10.88-10.24-7.623-11.39-13.143-28.173-10.88-47.36 5.912-50.039 35.45-68.642 49.28-76.16 4.606-25.459 16.595-55.318 37.12-86.4 21.038-31.859 50.772-61.643 86.4-80 0.422-0.217 0.856-0.426 1.28-0.64 13.855-16.454 34.83-28.16 58.24-28.16 20.233 0 37.646 9.592 51.2 22.4 40.235 17.354 72.088 51.199 95.36 85.76 1.162 1.726 2.088 3.4 3.2 5.12 2.334-1.818 5.133-3.157 8.185-3.816 0.135-0.024 30.664-10.648 69.895-21.144 38.824-10.387 86.086-20.903 124.8-21.12 30.538-36.959 68.725-61.44 110.72-61.44 41.871 0 79.638 24.579 110.080 61.44 0.479-0.040 1.037-0.063 1.6-0.063s1.121 0.023 1.673 0.067c122.379-0.005 198.967 21.115 198.967 21.115 8.866 2.382 15.285 10.347 15.285 19.812 0 6.121-2.685 11.616-6.942 15.369-33.435 29.76-36.965 60.271-32.662 101.779s19.2 90.638 19.2 145.28c0 47.098-7.794 102.647-35.2 148.48-26.26 43.917-73.564 76.606-140.8 79.36-10.030 13.159-50.273 62.72-138.88 62.72-88.21 0-154.857-36.534-198.4-81.28-15.949-16.39-28.83-33.345-39.040-50.56-2.756 6.219-5.832 12.591-9.6 18.56-16.093 25.494-45.159 44.722-82.56 48.64-8.064 15.124-39.732 70.4-124.8 70.4zM234.24 740.48c75.889 0 94.72-54.4 94.72-54.4 3.122-7.57 10.444-12.801 18.987-12.801 0.075 0 0.149 0 0.224 0.001 30.319 0 46.664-13.306 58.869-32.64s17.28-45.497 17.28-64.64c0-52.192-11.877-103.518-21.12-131.84-0.709-1.99-1.119-4.286-1.119-6.677 0-7.475 4.005-14.015 9.985-17.592 1.23-0.757 5.445-4.050 8.413-9.012s5.616-10.905 4.48-20.48c-2.557-21.652-11.583-33.626-19.2-40.96s-12.8-8.96-12.8-8.96c-7.34-2.701-12.637-9.283-13.433-17.194-1.464-13.985-13.597-47.335-33.927-77.526s-48.847-58.431-78.080-71.040c-3.062-1.341-5.633-3.296-7.653-5.727-6.668-8.175-15.84-13.473-26.907-13.473-11.107 0-20.88 5.259-27.52 13.44-2.047 2.464-4.618 4.419-7.549 5.708-29.044 12.669-56.385 40.945-76.291 71.092s-32.44 63.327-33.92 77.44c-0.803 7.997-6.1 14.579-13.298 17.234-0.142 0.046-28.365 7.169-33.422 49.966-1.075 9.117 1.203 14.943 4.48 19.84s8.188 8.324 10.24 9.6c5.777 3.687 9.552 10.064 9.552 17.322 0 2.511-0.452 4.916-1.279 7.139-4.101 11.822-9.943 34.886-14.674 56.818s-8.32 44.102-8.32 51.84c0 59.619 17.593 105.446 49.28 136.96s79.019 50.56 144 50.56zM688.64 734.72c82.254 0 113.28-51.84 113.28-51.84 3.67-5.784 10.029-9.574 17.276-9.6 59.714 0 92.352-24.723 113.924-60.8s29.44-85.166 29.44-127.36c0-46.979-13.677-94.327-18.56-141.44-3.77-36.374-0.121-74.014 21.76-107.52-25.666-5.143-66.826-11.36-131.2-12.8 27.92 49.492 46.080 111.709 46.080 177.92 0 128.978-88.32 197.12-88.32 197.12l-18.56 14.080-11.52-20.48c0 0-27.008-48.46-96.64-70.4-24.415-7.696-60.566-11.431-92.8-25.6-16.117-7.084-31.436-17.405-42.88-33.28s-17.92-36.613-17.92-61.44c0-65.387 17.148-127.004 44.16-176-27.027 3.468-58.451 10.145-85.12 17.28-37.738 10.097-66.56 20.48-66.56 20.48-0.485 0.199-1.124 0.418-1.775 0.605 7.312 16.145 12.584 31.46 15.215 45.475 5.336 2.73 8.58 3.12 16.64 10.88 13.314 12.819 27.051 34.216 30.72 65.28 2.222 18.728-2.672 35.139-9.6 46.72-3.266 5.46-6.655 7.226-10.24 10.88 8.225 27.587 16.095 65.951 18.56 108.8 0.815 2.123 1.287 4.579 1.287 7.146 0 0.188-0.003 0.375-0.008 0.562 0.001 21.32 17.483 68.275 54.401 106.212s91.917 69.12 168.96 69.12zM325.76 632.96c-1.008-0.185-1.868-0.407-2.705-0.681-4.772-0.848-8.982-3.386-11.989-6.967-0.027-0.127-0.028-0.239-0.028-0.352s0.001-0.225 0.003-0.337c-2.051-2.282-3.6-5.075-4.447-8.159-2.493-3.478-7.037-8.132-15.394-14.224-14.582-10.631-38.808-22.4-80-22.4-30.588 0-58.883-6.089-81.92-19.84s-40.712-35.516-46.72-62.72c-0.743-2.035-1.173-4.384-1.173-6.833 0-11.312 9.17-20.482 20.482-20.482 10.563 0 19.258 7.996 20.363 18.265 3.503 15.915 12.472 27.583 27.528 36.57s36.773 14.080 61.44 14.080c49.084 0 83.114 14.62 104.32 30.080 3.95 2.88 7.087 5.371 10.24 8.32 10.318-18.578 22.4-48.209 22.4-84.48-0.001-0.086-0.002-0.188-0.002-0.29 0-11.312 9.17-20.482 20.482-20.482s20.482 9.17 20.482 20.482c0 0.102-0.001 0.203-0.002 0.305 0 73.056-38.206 123.243-43.52 129.905-0.944 1.452-2 2.711-3.189 3.83-0.222 0.23-0.43 0.439-0.643 0.643-0.42 0.457-0.837 0.874-1.272 1.273-0.11 0.015-0.223 0.016-0.335 0.016s-0.225-0.001-0.337-0.003c-0.194 0.221-0.403 0.429-0.616 0.633-0.218 0.227-0.427 0.436-0.64 0.64-0.313 0.181-0.733 0.395-1.161 0.594-0.221 0.054-0.334 0.055-0.446 0.055s-0.225-0.001-0.337-0.003c-0.289 0.174-0.709 0.388-1.137 0.587-0.818 0.286-1.679 0.508-2.559 0.673-0.433 0.194-0.853 0.408-1.281 0.607-1.662 0.466-3.426 0.703-5.245 0.703-0.225 0-0.45-0.004-0.674-0.011zM780.8 551.040c17.528-16.027 58.88-59.157 58.88-149.76 0-64.88-19.689-126.595-48-170.88s-64.21-69.12-95.36-69.12c-31.237 0-67.069 24.347-95.36 68.48s-48 106.087-48 171.52c0 18.161 4.222 29.411 10.24 37.76s14.484 14.672 26.24 19.84c23.513 10.335 57.643 14.009 88.32 23.68 58.634 18.475 87.069 48.316 103.040 68.48zM143.36 427.52c-11.311 0-20.48-9.169-20.48-20.48s9.169-20.48 20.48-20.48c11.311 0 20.48 9.169 20.48 20.48s-9.169 20.48-20.48 20.48zM327.68 427.52c-11.311 0-20.48-9.169-20.48-20.48s9.169-20.48 20.48-20.48c11.311 0 20.48 9.169 20.48 20.48s-9.169 20.48-20.48 20.48zM614.4 407.040c-11.311 0-20.48-9.169-20.48-20.48s9.169-20.48 20.48-20.48c11.311 0 20.48 9.169 20.48 20.48s-9.169 20.48-20.48 20.48zM778.24 407.040c-11.311 0-20.48-9.169-20.48-20.48s9.169-20.48 20.48-20.48c11.311 0 20.48 9.169 20.48 20.48s-9.169 20.48-20.48 20.48z" />
<glyph unicode="&#xe912;" glyph-name="Employee-Card" d="M512 939.52c-45.001 0-81.92-36.919-81.92-81.92v-20.48h-184.32c-33.689 0-61.44-27.751-61.44-61.44v-757.76c0-33.689 27.751-61.44 61.44-61.44h532.48c33.689 0 61.44 27.751 61.44 61.44v757.76c0 33.689-27.751 61.44-61.44 61.44h-184.32v20.48c0 45.001-36.919 81.92-81.92 81.92zM512 898.56c22.869 0 40.96-18.091 40.96-40.96v-37.12c-0.014-0.287-0.023-0.622-0.023-0.96s0.008-0.673 0.024-1.007l-0.002-1.873c-0.078-0.672-0.123-1.451-0.123-2.24s0.045-1.568 0.132-2.334l-0.009-36.386h-81.92v37.12c0.271 1.251 0.427 2.687 0.427 4.16s-0.155 2.909-0.451 4.294l0.024 36.346c0 22.869 18.091 40.96 40.96 40.96zM512 878.080c-11.311 0-20.48-9.169-20.48-20.48s9.169-20.48 20.48-20.48c11.311 0 20.48 9.169 20.48 20.48s-9.169 20.48-20.48 20.48zM245.76 796.16h184.32v-40.96c0.001-11.31 9.17-20.479 20.48-20.48h122.88c11.31 0.001 20.479 9.17 20.48 20.48v40.96h184.32c11.572 0 20.48-8.908 20.48-20.48v-757.76c0-11.572-8.908-20.48-20.48-20.48h-532.48c-11.572 0-20.48 8.908-20.48 20.48v757.76c0 11.572 8.908 20.48 20.48 20.48zM510.72 673.28c-43.158-0.787-74.788-19.994-87.68-49.28-11.5-26.123-9.365-56.533-2.56-87.040-4.044-6.91-6.346-15.445-5.12-25.6 1.454-12.026 4.916-21.877 10.88-29.44 1.815-2.301 4.8-2.113 7.040-3.84 1.981-8.627 4.118-17.245 7.68-24.32 2.432-4.83 4.734-8.85 7.68-12.8 0.309-0.415 0.978-0.871 1.28-1.28 0.061-7.385-0.158-14.299-0.64-21.76-1.346-2.698-4.34-6.365-13.44-10.88-9.838-4.881-24.064-9.601-39.040-16s-30.689-14.604-44.16-28.16c-13.471-13.556-23.512-33.016-24.96-56.96-0.025-0.382-0.040-0.828-0.040-1.278 0-11.312 9.17-20.482 20.482-20.482 0.013 0 0.027 0 0.040 0h327.678c0.011 0 0.025 0 0.038 0 11.312 0 20.482 9.17 20.482 20.482 0 0.45-0.014 0.896-0.043 1.338-1.438 23.865-11.535 43.338-24.957 56.9s-29.237 21.758-44.16 28.16c-14.923 6.402-29.244 11.122-39.040 16-9.061 4.512-12.087 8.16-13.44 10.88-0.483 7.461-0.701 14.375-0.64 21.76 0.378 0.521 1.535 0.752 1.92 1.28 2.906 3.98 5.318 8.612 7.68 13.44 3.43 7.011 5.119 15.217 7.040 23.68 2.244 1.728 5.223 1.536 7.040 3.84 5.971 7.572 9.438 17.411 10.88 29.44 1.274 10.552-1.396 19.215-5.76 26.24 4.155 14.712 9.431 32.761 7.68 55.040-1.080 13.734-4.849 28.27-14.080 40.96-8.414 11.568-22.040 19.622-38.4 23.040-12.556 11.25-28.885 16.64-46.72 16.64-0.095 0.002-0.207 0.002-0.32 0.002s-0.225-0.001-0.337-0.003zM511.36 632.32c15.445 0 22.039-4.968 21.76-4.48 3.060-5.398 8.36-9.222 14.603-10.224 9.475-1.309 13.064-4.138 16.117-8.336s5.063-10.974 5.76-19.84c1.394-17.732-4.316-41.133-7.68-51.2-0.671-1.94-1.059-4.175-1.059-6.501 0-6.053 2.626-11.493 6.8-15.242 0.017-0.112 0.016-0.224 0.016-0.337s0.001-0.225 0.003-0.337c-0.71-5.905-1.709-6.636-1.92-7.023-7.076-2.886-12.112-9.42-12.795-17.203-0.589-5.495-3.444-13.225-6.405-19.277-1.481-3.026-2.801-5.616-3.84-7.040-5.808-3.682-9.608-10.076-9.608-17.357 0-0.198 0.003-0.395 0.008-0.592-0.001-12.077-0.089-22.597 1.279-37.731 0-0.012 0-0.026 0-0.040 0-1.805 0.233-3.556 0.672-5.223 6.494-17.296 21.536-26.99 35.168-33.777s28.033-11.734 40.96-17.28c12.927-5.546 23.959-11.722 31.36-19.2 2.168-2.19 2.174-6.491 3.84-8.96h-268.8c1.673 2.468 1.662 6.768 3.84 8.96 7.438 7.484 19.015 13.652 32 19.2s27.288 10.496 40.96 17.28c13.672 6.784 28.023 16.452 34.56 33.92 0.604 1.489 1.054 3.22 1.27 5.023 1.377 15.232 0.65 25.752 0.65 37.857 0.006 0.192 0.010 0.417 0.010 0.644 0 6.454-2.985 12.211-7.651 15.965-0.082 0.061-1.055 0.506-1.32 0.671-0.55 0.418-1.176 0.841-1.826 1.228 0.977-0.504 1.375-0.315 1.826-0.588-1.084 1.453-2.956 4.013-4.48 7.040-3.047 6.053-5.835 13.953-6.4 19.2-0.688 7.86-5.724 14.394-12.663 17.231-0.331 0.402-1.332 1.739-2.057 7.729 3.931 3.739 6.377 9.010 6.377 14.851 0 1.772-0.225 3.491-0.648 5.131-7.734 29.578-7.869 55.86-1.249 70.898s17.369 24.355 50.56 24.96zM364.8 222.72c-10.504-1.014-18.65-9.796-18.65-20.48 0-11.36 9.209-20.57 20.57-20.57 0.676 0 1.344 0.033 2.004 0.096l286.636-0.007c0.086-0.001 0.188-0.002 0.29-0.002 11.312 0 20.482 9.17 20.482 20.482s-9.17 20.482-20.482 20.482c-0.102 0-0.203-0.001-0.305-0.002h-286.705c-0.287 0.014-0.622 0.023-0.96 0.023s-0.673-0.008-1.007-0.024c-0.24 0.016-0.575 0.024-0.913 0.024s-0.673-0.008-1.007-0.024zM364.8 140.8c-10.504-1.014-18.65-9.796-18.65-20.48 0-11.36 9.209-20.57 20.57-20.57 0.676 0 1.344 0.033 2.004 0.096l286.636-0.007c0.086-0.001 0.188-0.002 0.29-0.002 11.312 0 20.482 9.17 20.482 20.482s-9.17 20.482-20.482 20.482c-0.102 0-0.203-0.001-0.305-0.002h-286.705c-0.287 0.014-0.622 0.023-0.96 0.023s-0.673-0.008-1.007-0.024c-0.24 0.016-0.575 0.024-0.913 0.024s-0.673-0.008-1.007-0.024z" />
<glyph unicode="&#xe913;" glyph-name="Fog-Day" d="M480 864v-160h64v160h-64zM240 765l-45-45 113-114 46 46-114 113zM784 765l-114-113 46-46 113 114-45 45zM512 672c-88.83 0-165.798-52.567-202-128h-182v-64h320v64h-63c29.158 38.613 74.678 64 127 64 88.757 0 160-71.243 160-160s-71.243-160-160-160h-64v-64h64c123.339 0 224 100.661 224 224s-100.661 224-224 224zM768 480v-64h160v64h-160zM224 416v-64h320v64h-320zM716 290l-46-46 114-113 45 45-113 114zM128 288v-64h256v64h-256zM480 192v-160h64v160h-64z" />
<glyph unicode="&#xe914;" glyph-name="Hourglass-Sand-Top" d="M122.88 939.52v-81.92c0-33.689 27.751-61.44 61.44-61.44h40.96v-137.6c0-61.608 30.671-119.442 81.92-153.6l85.76-56.96-85.76-56.96c-51.243-34.178-81.92-92.010-81.92-153.6v-137.6h-40.96c-33.689 0-61.44-27.751-61.44-61.44v-81.92h778.24v81.92c0 33.689-27.751 61.44-61.44 61.44h-40.96v137.6c0 61.59-30.677 119.422-81.92 153.6l-85.76 56.96 85.76 56.96c51.249 34.158 81.92 91.992 81.92 153.6v137.6h40.96c33.689 0 61.44 27.751 61.44 61.44v81.92h-778.24zM163.84 898.56h696.32v-40.96c0-11.572-8.908-20.48-20.48-20.48h-655.36c-11.572 0-20.48 8.908-20.48 20.48v40.96zM266.24 796.16h491.52v-137.6c0-47.96-24.113-92.455-64-119.040l-111.36-74.24-25.6-17.28 25.6-17.28 111.36-74.24c39.893-26.607 64-71.103 64-119.040v-137.6h-491.52v137.6c0 47.937 24.107 92.433 64 119.040l111.36 74.24 25.6 17.28-25.6 17.28-111.36 74.24c-39.887 26.585-64 71.080-64 119.040v137.6zM327.68 693.76c0-165.704 184.32-204.8 184.32-204.8s184.32 41.267 184.32 204.8h-368.64zM184.32 58.88h655.36c11.572 0 20.48-8.908 20.48-20.48v-40.96h-696.32v40.96c0 11.572 8.908 20.48 20.48 20.48z" />
<glyph unicode="&#xe915;" glyph-name="iMac" d="M61.44 857.6c-33.689 0-61.44-27.751-61.44-61.44v-593.92c0-33.689 27.751-61.44 61.44-61.44h356.48l-10.88-69.12c-3.051-19.188-18.998-33.28-38.4-33.28h-20.48c-0.287 0.014-0.622 0.023-0.96 0.023s-0.673-0.008-1.007-0.024c-10.855-0.525-19.495-9.493-19.495-20.478 0-11.323 9.179-20.502 20.502-20.502 0.338 0 0.673 0.008 1.007 0.024l327.633-0.002c0.086-0.001 0.188-0.002 0.29-0.002 11.312 0 20.482 9.17 20.482 20.482s-9.17 20.482-20.482 20.482c-0.102 0-0.203-0.001-0.305-0.002h-20.465c-19.402 0-35.349 14.092-38.4 33.28l-10.88 69.12h356.48c33.689 0 61.44 27.751 61.44 61.44v593.92c0 33.689-27.751 61.44-61.44 61.44h-901.12zM61.44 816.64h901.12c11.572 0 20.48-8.908 20.48-20.48v-491.52h-942.080v491.52c0 11.572 8.908 20.48 20.48 20.48zM40.96 263.68h942.080v-61.44c0-11.572-8.908-20.48-20.48-20.48h-901.12c-11.572 0-20.48 8.908-20.48 20.48v61.44zM512 245.12c-12.34 0-22.4-10.060-22.4-22.4s10.060-22.4 22.4-22.4c12.34 0 22.4 10.060 22.4 22.4s-10.060 22.4-22.4 22.4zM460.16 140.8h103.68l12.16-75.52c1.541-9.693 4.938-18.703 9.6-26.88h-147.2c4.662 8.177 8.059 17.187 9.6 26.88l12.16 75.52z" />
<glyph unicode="&#xe916;" glyph-name="Lightning-Bolt" d="M512 768v-288l128-32-124.8-320h-3.2v256.992l-128 32 124.8 351.008h3.2zM576 832h-112.384l-163.552-460 147.936-36.96v-271.040h110.944l15.904 40.736 151.2 387.712-150.048 37.536v302.016z" />
<glyph unicode="&#xe917;" glyph-name="Literature" d="M119.040 919.040c-9.542-1.869-16.643-10.165-16.643-20.119 0-0.127 0.001-0.254 0.003-0.38v-102.381h-44.16c-31.974 0-58.24-26.25-58.24-58.24v-682.24c0-31.99 26.266-58.24 58.24-58.24h341.76c9.647-14.976 42.796-61.44 112-61.44s102.353 46.464 112 61.44h341.76c31.974 0 58.24 26.25 58.24 58.24v682.24c0 31.99-26.266 58.24-58.24 58.24h-44.16v102.4c-0.001 11.31-9.17 20.479-20.48 20.48-156.331 0-257.243-31.591-319.36-64-31.059-16.205-52.158-32.097-65.92-44.8-1.651-1.524-2.375-2.398-3.84-3.84-1.465 1.442-2.189 2.316-3.84 3.84-13.762 12.703-34.861 28.595-65.92 44.8-62.118 32.409-163.029 64-319.36 64-0.287 0.014-0.622 0.023-0.96 0.023s-0.673-0.008-1.007-0.024c-0.24 0.016-0.575 0.024-0.913 0.024s-0.673-0.008-1.007-0.024zM143.36 876.8c138.017-2.77 226.804-30.013 279.68-57.6 27.821-14.515 46.402-29.343 57.6-39.68 8.768-8.094 9.602-10.402 10.88-12.16v-652.16c-13.578 7.46-28.456 15.772-53.12 24.32-58.395 20.238-154.164 38.929-295.040 40.96v696.32zM880.64 876.8v-696.32c-140.876-2.031-236.645-20.722-295.040-40.96-24.664-8.548-39.542-16.86-53.12-24.32v652.16c1.278 1.758 2.112 4.066 10.88 12.16 11.198 10.337 29.779 25.165 57.6 39.68 52.876 27.587 141.663 54.83 279.68 57.6zM58.24 755.2h44.16v-593.92c0.001-11.31 9.17-20.479 20.48-20.48 150.92 0 246.207-20.094 302.72-39.68 28.257-9.793 46.294-19.356 57.6-26.24 8.824-5.373 12.102-7.804 13.44-8.96 3.755-4.064 9.111-6.601 15.061-6.601 1.009 0 2 0.073 2.97 0.214-0.015-0.015 0.097-0.016 0.21-0.016s0.225 0.001 0.337 0.003c3.404 0.581 6.434 1.935 8.994 3.877 1.663 1.057 3.137 2.328 4.409 3.779 2.186 1.695 5.838 3.842 12.18 7.704 11.306 6.884 29.343 16.447 57.6 26.24 56.513 19.586 151.8 39.68 302.72 39.68 11.31 0.001 20.479 9.17 20.48 20.48v593.92h44.16c9.764 0 17.28-7.409 17.28-17.28v-682.24c0-9.871-7.516-17.28-17.28-17.28h-351.36c-0.051 0-0.11 0.001-0.17 0.001-7.545 0-14.137-4.075-17.697-10.144-0.052-0.097-28.574-51.297-84.532-51.297s-84.48 51.2-84.48 51.2c-3.612 6.166-10.205 10.241-17.75 10.241-0.060 0-0.12 0-0.18-0.001h-351.351c-9.764 0-17.28 7.409-17.28 17.28v682.24c0 9.871 7.516 17.28 17.28 17.28z" />
<glyph unicode="&#xe918;" d="M132.716 581.408c-73.303 0-132.716-59.421-132.716-132.716s59.421-132.716 132.716-132.716c73.295 0 132.716 59.421 132.716 132.716s-59.421 132.716-132.716 132.716zM132.716 320.195c-70.966 0-128.498 57.524-128.498 128.49s57.531 128.49 128.498 128.49c70.966 0 128.49-57.531 128.49-128.49 0-70.966-57.524-128.49-128.49-128.49z" />
<glyph unicode="&#xe919;" d="M344.915 388.514h8.495v65.796h-22.218v-20.754h-9.591v30.345h75.019v-30.345h-9.591v20.754h-22.211v-65.796h8.495v-9.591h-28.398v9.591z" />
<glyph unicode="&#xe91a;" d="M402.699 440.587h17.963v-8.495h0.361c6.194 9.346 15.057 10.932 20.393 10.932 15.173 0 27.799-10.204 27.799-33.266 0-23.913-13.478-33.258-27.554-33.258-2.423 0-14.812 0.606-20.271 11.286v-23.79h8.012v-7.529h-26.703v7.529h8.012v69.070h-8.012v7.521zM439.721 384.022c8.617 0 18.208 6.072 18.208 25.73 0 16.031-6.678 25.737-18.814 25.737-5.459 0-18.454-2.675-18.454-25.982 0-19.052 10.925-25.485 19.059-25.485z" />
<glyph unicode="&#xe91b;" d="M510.010 443.024c22.456 0 30.352-16.882 30.352-33.266s-7.904-33.258-30.352-33.258c-22.463 0-30.345 16.874-30.345 33.258s7.882 33.266 30.345 33.266zM510.010 384.022c4.738 0 19.059 1.089 19.059 25.852 0 24.771-14.322 25.86-19.059 25.86s-19.059-1.089-19.059-25.86c0-24.763 14.322-25.852 19.059-25.852z" />
<glyph unicode="&#xe91c;" d="M558.448 386.452v46.614h-8.012v7.521h26.718v-7.521h-8.012v-41.638l31.549 49.159h19.918v-7.521h-8.012v-46.614h8.012v-7.529h-26.703v7.529h8.012v41.753l-31.448-49.282h-20.033v7.529h8.012zM596.451 463.901h9.468c-1.817-10.197-8.863-16.269-21.129-16.269-12.252 0-19.297 6.072-21.115 16.269h9.468c0.844-6.194 5.228-9.346 11.646-9.346 6.432-0.007 10.817 3.151 11.661 9.346z" />
<glyph unicode="&#xe91d;" d="M649.014 386.452h8.012v-7.529h-26.703v7.529h7.997v46.614h-7.997v7.521h26.703v-7.521h-8.012v-46.614zM670.504 433.065h-5.957v7.521h24.042v-7.521h-7.045l-18.454-21.482 20.141-25.124h8.142v-7.529h-14.084l-25.239 32.292 18.454 21.843z" />
<glyph unicode="&#xe91e;" d="M738.729 387.663c-4.255-7.767-12.75-11.17-21.129-11.17-12.987 0-21.735 5.582-21.735 18.576 0 10.673 5.466 17.235 30.222 19.543 9.115 0.606 12.014 0.483 12.014 8.502 0 2.906-0.238 12.382-13.831 12.382-3.887 0-16.391-0.245-16.031-13.11h-10.197c0 8.257 4.377 20.639 26.227 20.639 9.959 0 24.886-2.798 24.518-20.761v-35.811h7.759v-7.529h-17.833v8.74zM738.109 410.487c-3.159-2.43-6.786-2.062-13.593-3.036-9.468-1.579-17.603-1.947-17.603-12.021 0-7.283 4.983-11.408 11.899-11.408 8.379 0 19.297 5.582 19.297 22.088v4.377z" />
<glyph unicode="&#xe91f;" d="M766.522 416.429h32.905v-9.584h-32.905v9.584z" />
<glyph unicode="&#xe920;" d="M825.762 388.514h8.509v65.796h-22.225v-20.754h-9.577v30.345h75.012v-30.345h-9.591v20.754h-22.211v-65.796h8.495v-9.591h-28.405v9.591z" />
<glyph unicode="&#xe921;" d="M881.729 440.587h28.045v-7.521h-7.536l16.874-42.366 13.846 42.366h-7.774v7.521h26.703v-7.521h-8.365l-28.65-76.598h-16.997v7.529h10.565l5.228 14.927-23.804 54.142h-8.127v7.521z" />
<glyph unicode="&#xe922;" d="M955.536 440.587h17.97v-8.495h0.368c6.18 9.346 15.043 10.932 20.393 10.932 15.173 0 27.792-10.204 27.792-33.266 0-23.913-13.463-33.258-27.547-33.258-2.423 0-14.805 0.606-20.271 11.286v-23.79h8.012v-7.529h-26.718v7.529h8.012v69.070h-8.012v7.521zM992.566 384.022c8.617 0 18.208 6.072 18.208 25.73 0 16.031-6.678 25.737-18.814 25.737-5.466 0-18.454-2.675-18.454-25.982 0-19.052 10.932-25.485 19.059-25.485z" />
<glyph unicode="&#xe923;" d="M337.48 504.248h-4.262v32.876h-11.61v3.786h27.482v-3.786h-11.61v-32.876z" />
<glyph unicode="&#xe924;" d="M349.609 531.73h4.464l6.014-15.67c1.32-3.577 2.142-6.158 2.459-7.745h0.202c0.216 0.851 0.671 2.308 1.363 4.37 0.692 2.070 2.964 8.416 6.807 19.045h4.464l-11.812-31.297c-1.168-3.094-2.538-5.286-4.096-6.584s-3.483-1.947-5.755-1.947c-1.269 0-2.524 0.144-3.757 0.425v3.332c0.916-0.202 1.947-0.303 3.086-0.303 2.856 0 4.896 1.608 6.122 4.81l1.529 3.909-11.091 27.655z" />
<glyph unicode="&#xe925;" d="M392.646 503.75c-1.788 0-3.425 0.325-4.904 0.988-1.478 0.656-2.719 1.673-3.728 3.043h-0.303c0.202-1.608 0.303-3.13 0.303-4.565v-11.307h-4.161v39.821h3.389l0.577-3.757h0.195c1.067 1.5 2.315 2.589 3.735 3.259s3.050 1.002 4.889 1.002c3.642 0 6.461-1.248 8.437-3.735 1.976-2.495 2.971-5.985 2.971-10.485 0-4.514-1.010-8.019-3.022-10.521-2.005-2.495-4.803-3.743-8.379-3.743zM392.041 528.694c-2.805 0-4.839-0.772-6.094-2.329-1.255-1.55-1.897-4.031-1.933-7.42v-0.923c0-3.865 0.642-6.627 1.933-8.286 1.284-1.666 3.353-2.495 6.194-2.495 2.373 0 4.233 0.959 5.582 2.885 1.341 1.918 2.019 4.572 2.019 7.947 0 3.425-0.678 6.057-2.019 7.889-1.349 1.817-3.238 2.733-5.682 2.733z" />
<glyph unicode="&#xe926;" d="M435.049 518.014c0-4.485-1.125-7.976-3.382-10.5-2.257-2.517-5.38-3.771-9.353-3.771-2.459 0-4.637 0.577-6.548 1.731-1.904 1.154-3.375 2.812-4.413 4.961s-1.558 4.68-1.558 7.572c0 4.478 1.125 7.968 3.36 10.471s5.351 3.75 9.324 3.75c3.844 0 6.901-1.276 9.166-3.836 2.272-2.553 3.404-6.014 3.404-10.377zM414.107 518.014c0-3.512 0.707-6.187 2.106-8.026s3.469-2.762 6.194-2.762 4.795 0.916 6.202 2.747 2.12 4.507 2.12 8.041c0 3.49-0.707 6.151-2.12 7.961s-3.49 2.719-6.252 2.719c-2.726 0-4.781-0.894-6.166-2.683-1.392-1.788-2.084-4.449-2.084-7.997z" />
<glyph unicode="&#xe927;" d="M446.507 504.248h-4.161v27.482h23.069v-27.482h-4.211v23.877h-14.697v-23.877z" />
<glyph unicode="&#xe928;" d="M485.852 503.75c-4.060 0-7.262 1.233-9.613 3.707s-3.526 5.913-3.526 10.305c0 4.435 1.089 7.954 3.274 10.557 2.185 2.61 5.113 3.916 8.791 3.916 3.44 0 6.166-1.132 8.17-3.397s3.007-5.257 3.007-8.964v-2.632h-18.93c0.087-3.223 0.901-5.675 2.445-7.348s3.728-2.51 6.533-2.51c2.964 0 5.884 0.62 8.776 1.853v-3.714c-1.471-0.635-2.863-1.089-4.175-1.363s-2.892-0.411-4.752-0.411zM484.727 528.752c-2.207 0-3.966-0.721-5.279-2.156-1.312-1.442-2.084-3.433-2.322-5.971h14.372c0 2.625-0.584 4.637-1.752 6.029-1.175 1.399-2.848 2.098-5.019 2.098z" />
<glyph unicode="&#xe929;" d="M515.844 503.75c-1.788 0-3.418 0.325-4.904 0.988-1.478 0.656-2.719 1.673-3.728 3.043h-0.303c0.202-1.608 0.303-3.13 0.303-4.565v-11.307h-4.154v39.821h3.389l0.577-3.757h0.195c1.067 1.5 2.315 2.589 3.743 3.259 1.421 0.671 3.050 1.002 4.889 1.002 3.649 0 6.454-1.248 8.437-3.735 1.983-2.495 2.971-5.985 2.971-10.485 0-4.514-1.002-8.019-3.014-10.521-2.034-2.495-4.824-3.743-8.401-3.743zM515.238 528.694c-2.805 0-4.832-0.772-6.086-2.329-1.255-1.55-1.897-4.031-1.933-7.42v-0.923c0-3.865 0.642-6.627 1.933-8.286 1.291-1.666 3.353-2.495 6.194-2.495 2.373 0 4.233 0.959 5.567 2.885 1.356 1.918 2.026 4.572 2.026 7.947 0 3.425-0.678 6.057-2.026 7.889-1.334 1.817-3.223 2.733-5.675 2.733z" />
<glyph unicode="&#xe92a;" d="M551.438 504.248l-0.829 3.909h-0.195c-1.377-1.723-2.747-2.885-4.096-3.497-1.363-0.606-3.072-0.909-5.113-0.909-2.719 0-4.86 0.699-6.411 2.106-1.536 1.406-2.308 3.404-2.308 5.993 0 5.553 4.435 8.459 13.312 8.726l4.658 0.151v1.702c0 2.156-0.462 3.75-1.377 4.781-0.93 1.031-2.423 1.543-4.464 1.543-2.279 0-4.875-0.707-7.759-2.106l-1.284 3.18c1.356 0.736 2.834 1.312 4.449 1.731 1.608 0.418 3.223 0.62 4.846 0.62 3.281 0 5.704-0.728 7.298-2.178 1.579-1.457 2.365-3.786 2.365-6.995v-18.757h-3.094zM542.028 507.183c2.589 0 4.622 0.714 6.115 2.127 1.478 1.421 2.214 3.411 2.214 5.971v2.481l-4.161-0.173c-3.31-0.115-5.704-0.635-7.168-1.543s-2.185-2.329-2.185-4.255c0-1.5 0.454-2.647 1.356-3.433 0.916-0.779 2.199-1.175 3.829-1.175z" />
<glyph unicode="&#xe92b;" d="M581.618 528.175h-8.913v-23.927h-4.168v23.927h-8.834v3.555h21.915v-3.555z" />
<glyph unicode="&#xe92c;" d="M610.787 518.014c0-4.485-1.125-7.976-3.382-10.5-2.264-2.517-5.38-3.771-9.353-3.771-2.466 0-4.651 0.577-6.548 1.731s-3.382 2.812-4.421 4.961c-1.031 2.156-1.55 4.68-1.55 7.572 0 4.478 1.125 7.968 3.368 10.471s5.351 3.75 9.324 3.75c3.844 0 6.901-1.276 9.166-3.836 2.272-2.553 3.397-6.014 3.397-10.377zM589.846 518.014c0-3.512 0.707-6.187 2.113-8.026s3.461-2.762 6.194-2.762c2.719 0 4.788 0.916 6.194 2.747 1.421 1.832 2.127 4.507 2.127 8.041 0 3.49-0.707 6.151-2.127 7.961-1.406 1.81-3.49 2.719-6.252 2.719-2.719 0-4.774-0.894-6.166-2.683-1.377-1.788-2.084-4.449-2.084-7.997z" />
<glyph unicode="&#xe92d;" d="M630.871 503.75c-1.788 0-3.425 0.325-4.904 0.988-1.478 0.656-2.719 1.673-3.721 3.043h-0.31c0.209-1.608 0.31-3.13 0.31-4.565v-11.307h-4.168v39.821h3.382l0.577-3.757h0.209c1.067 1.5 2.308 2.589 3.735 3.259s3.058 1.002 4.889 1.002c3.649 0 6.461-1.248 8.437-3.735 1.983-2.495 2.971-5.985 2.971-10.485 0-4.514-1.002-8.019-3.014-10.521s-4.817-3.743-8.394-3.743zM630.265 528.694c-2.805 0-4.832-0.772-6.086-2.329-1.255-1.55-1.904-4.031-1.933-7.42v-0.923c0-3.865 0.635-6.627 1.933-8.286 1.284-1.666 3.353-2.495 6.18-2.495 2.38 0 4.24 0.959 5.589 2.885 1.341 1.918 2.012 4.572 2.012 7.947 0 3.425-0.678 6.057-2.012 7.889-1.341 1.817-3.231 2.733-5.682 2.733z" />
<glyph unicode="&#xe92e;" glyph-name="Marker" d="M512 939.52c-180.675 0-327.68-147.005-327.68-327.68 0-289.055 299.561-633.779 312.32-648.32 3.891-4.444 9.462-7.040 15.36-7.040 6.349 0.43 11.469 2.534 15.36 7.040 12.759 14.787 312.32 365.43 312.32 648.32 0 180.675-147.005 327.68-327.68 327.68zM512 714.24c67.85 0 122.88-55.030 122.88-122.88s-55.030-122.88-122.88-122.88c-67.85 0-122.88 55.030-122.88 122.88s55.030 122.88 122.88 122.88z" />
<glyph unicode="&#xe92f;" glyph-name="Mastercard" d="M707.277 765.338c-73.851 0-141.66-25.539-195.482-67.994-53.842 42.557-121.713 68.157-195.686 68.157-174.572 0-316.088-141.517-316.088-316.088s141.517-316.088 316.088-316.088c73.871 0 141.66 25.559 195.482 67.994 53.842-42.557 121.692-68.157 195.686-68.157 174.572 0 316.088 141.517 316.088 316.088 0 174.551-141.496 316.088-316.088 316.088zM316.109 159.15c-160.317 0-290.263 129.966-290.263 290.243 0 160.297 129.966 290.263 290.263 290.263 66.13 0 126.894-22.364 175.718-59.597-61.768-57.692-100.618-139.612-100.618-230.83 0-91.095 38.769-172.974 100.434-230.646-48.783-37.11-109.486-59.433-175.534-59.433zM606.372 449.413c0-84.89-36.68-161.055-94.781-214.098-57.999 53.043-94.597 129.126-94.597 213.934 0 84.91 36.68 161.034 94.761 214.098 58.020-53.064 94.618-129.147 94.618-213.934zM707.277 159.007c-66.13 0-126.894 22.364-175.698 59.597 61.768 57.672 100.598 139.592 100.598 230.81 0 91.095-38.769 172.954-100.413 230.646 48.783 37.13 109.466 59.453 175.514 59.453 160.297 0 290.263-129.966 290.263-290.263s-129.966-290.243-290.263-290.243z" />
<glyph unicode="&#xe930;" glyph-name="Menu" d="M128 736v-64h768v64h-768zM128 480v-64h768v64h-768zM128 224v-64h768v64h-768z" />
<glyph unicode="&#xe931;" glyph-name="Moderate-Rain" d="M512 800c-106.58 0-193.657-75.866-216-176-38.963-15.347-67.998-43.88-85-82-6.407 0.715-12.251 2-19 2-105.652 0-192-86.348-192-192s86.348-192 192-192h96v64h-96c-71.052 0-128 56.948-128 128s56.948 128 128 128c9.314 0 18.465-0.851 28-3l32-7 6 31c7.925 35.652 36.478 63.528 72 72l21 5 3 22c11.392 77.236 77.294 136 158 136 62.664 0 116.617-35.822 143-88l12-25 27 9c13.986 4.914 27.78 8 42 8 71.052 0 128-56.948 128-128 0 0.288-0.44-2.495-1-10l-2-23 21-9c45.706-19.515 78-64.826 78-118 0-71.052-56.948-128-128-128h-96v-64h96c105.652 0 192 86.348 192 192 0 69.285-40.65 126.248-96 160 0 105.652-86.348 192-192 192-13.835 0-25.466-4.164-38-7-39.971 61.346-107.556 103-186 103zM352 320v-96h64v96h-64zM608 320v-96h64v96h-64zM480 256v-96h64v96h-64zM352 192v-64h64v64h-64zM608 192v-64h64v64h-64zM480 128v-64h64v64h-64z" />
<glyph unicode="&#xe932;" glyph-name="Multiply" d="M279 727l-46-46 233-233-233-233 46-46 233 233 233-233 46 46-233 233 233 233-46 46-233-233-233 233z" />
<glyph unicode="&#xe933;" glyph-name="No-Smoking" d="M119 887l-46-46 832-832 46 46-201 201h242v192h-434l-439 439zM513 832c-11.561-11.561-20.028-25.159-30-47s-18.913-49.436-19-80c-0.086-30.564 10.471-65.662 38-92s69.469-43.533 128-51c48.796-6.223 80.154-14.292 98-25s25.232-21.793 31-48l63 14c-8.312 37.761-29.182 69.908-61 89s-70.932 27.359-123 34c-49.837 6.357-77.767 20.383-92 34s-18.049 27.568-18 45c0.049 17.432 5.646 36.894 13 53s18.753 30.753 17 29l-45 45zM690 822v-64c19.867 0 45.493-2.948 65-14s36.055-27.221 40-74l3-30h29c16.522 0 50.935-5.095 68-20 8.532-7.453 13.999-16.239 16-33s-0.941-42.337-16-79l60-24c17.853 43.465 23.741 79.659 20 111s-18.972 56.381-38 73c-28.937 25.275-60.292 31.781-86 34-11.068 46.259-34.212 81.122-64 98-35.885 20.332-73.251 22-97 22zM32 448v-192h538l-64 64h-410v64h346l-64 64h-346zM622 384h114v-64h-50l-64 64zM800 384h32v-64h-32v64zM896 384h32v-64h-32v64z" />
<glyph unicode="&#xe934;" glyph-name="Parking" d="M192 800v-704h640v704h-640zM256 736h512v-576h-512v576zM384 640v-384h64v96h96c52.639 0 96 43.361 96 96v96c0 52.639-43.361 96-96 96h-160zM448 576h96c18.081 0 32-13.919 32-32v-96c0-18.081-13.919-32-32-32h-96v160z" />
<glyph unicode="&#xe935;" glyph-name="Partly-Cloudy-Day" d="M288 768v-99c-20.295-4.182-39.203-12.824-56-24l-70 71-46-46 71-70c-11.176-16.797-19.818-35.705-24-56h-99v-64h100c4.127-20.065 12.288-38.402 23-55l-71-71 20-20c-4.41-14.618-8-29.964-8-46 0-88.224 71.776-160 160-160h512c88.224 0 160 71.776 160 160 0 64.608-38.792 122.2-97 147-9.056 77.376-73.96 137.896-153 141-33.984 59.072-96.688 96-166 96-7.223 0-13.952-0.206-21-1l-45 45-70-71c-16.763 10.731-35.854 18.877-56 23v100h-64zM320 608c24.539 0 46.248-9.118 63-24-8.385-12.937-15.887-27.073-21-42-50.656-8.672-91.288-47.432-103-97-1.703-0.308-3.316-0.638-5-1-17.876 17.4-30 40.87-30 68 0 53.391 42.609 96 96 96zM544 608c51.36 0 97.808-30.704 118-78l9-22 29 3c1.408 0.224 2.528 1 4 1 52.928 0 95.904-43.28 96-94l-1-31 25-6c42.592-10.848 72-49.352 72-93 0-52.928-43.072-96-96-96h-512c-52.928 0-96 43.072-96 96s43.072 96 96 96h32v32c0 35.296 28.584 63.84 61 64l32-2 6 27c11.968 59.488 64.296 103 125 103z" />
<glyph unicode="&#xe936;" glyph-name="Partly-Cloudy-Rain" d="M224 768v-99c-20.295-4.182-39.203-12.824-56-24l-70 71-46-46 71-70c-11.176-16.797-19.818-35.705-24-56h-99v-64h99c4.201-20.386 12.774-39.19 24-56l-71-70 46-46 70 71c9.671-6.402 20.041-11.788 31-16-3.841-13.718-7-28.074-7-43 0-88.224 71.776-160 160-160h37c5.728 20.128 16.096 42.112 28 64h-65c-52.928 0-96 43.072-96 96s43.072 96 96 96h32v32c0 35.296 28.584 63.84 61 64l32-2 6 27c11.968 59.488 64.296 103 125 103 51.36 0 97.808-30.704 118-78l9-22 29 3c1.408 0.224 2.528 1 4 1 52.928 0 95.904-43.28 96-94l-1-31 25-6c42.592-10.848 72-49.352 72-93 0-52.928-43.072-96-96-96h-32c0-23.424-6.992-45.088-18-64h50c88.224 0 160 71.776 160 160 0 64.608-38.792 122.2-97 147-9.056 77.376-73.96 137.896-153 141-33.984 59.072-96.688 96-166 96-82.656 0-155.792-53.488-182-130-7.39-1.265-14.097-2.523-21-5-4.212 10.959-9.598 21.329-16 31l71 70-46 46-70-71c-16.81 11.226-35.614 19.799-56 24v99h-64zM256 608c47.065 0 85.493-33.582 94-78-12.474-14.968-22.374-33.422-27-53-38.564-6.976-71.341-27.664-95-57-39.479 11.898-68 48.412-68 92 0 53.391 42.609 96 96 96zM704 352c0 0-64-92.64-64-128s28.64-64 64-64c4.42 0 8.833 0.148 13 1 29.17 5.965 51 32.060 51 63 0 35.36-64 128-64 128zM512 256c0 0-9.093-14.467-20-32-3.959-6.364-7.739-11.656-12-19-5.789-9.99-10.97-19.726-16-30-2.517-5.115-4.951-10.145-7-15-5.233-12.4-9-23.85-9-32 0-35.36 28.64-64 64-64s64 28.64 64 64c0 8.15-3.767 19.6-9 32-0.443 1.050-0.532 1.934-1 3-1.692 3.871-4.033 7.986-6 12-8.712 17.708-18.712 34.068-28 49-10.907 17.533-20 32-20 32z" />
<glyph unicode="&#xe937;" glyph-name="Payroll" d="M439.68 919.040c-93.788 0-161.973-38.048-197.76-94.080-33.603-52.612-37.414-119.383-14.72-181.12-8.448-11.138-15.249-25.608-12.8-46.72 2.789-24.148 9.332-41.497 18.56-53.76 4.784-6.358 11.31-6.923 17.28-10.24 3.036-19.924 7.533-40.53 14.72-57.6 4.157-9.873 8.532-18.658 13.44-26.24 2.127-3.285 5.941-5.448 8.32-8.32v-69.76c-6.333-15.562-19.408-27.872-40.32-39.68-21.853-12.34-50.905-23.45-80-37.76s-58.852-32.166-82.56-59.52c-23.708-27.354-40.080-64.147-42.88-112.64-0.025-0.382-0.040-0.828-0.040-1.278 0-11.312 9.17-20.482 20.482-20.482 0.013 0 0.027 0 0.040 0h463.358c42.576-73.347 121.759-122.88 212.48-122.88 135.487 0 245.76 110.273 245.76 245.76 0 134.404-108.561 244.017-242.56 245.76-0.56 14.58-0.726 28.368-0.64 43.52 1.691 2.090 4.778 3.432 6.4 5.76 4.522 6.489 8.848 13.941 12.8 22.4 6.757 14.462 11.199 32 14.080 49.28 4.852 2.968 10.228 3.202 14.080 8.32 8.247 10.958 13.621 25.986 16 46.72 1.474 12.735 0.205 24.198-3.84 33.92-1.214 2.918-5.269 3.736-7.040 6.4 5.211 11.825 10.731 23.454 12.16 38.4 2.046 21.406 0.867 45.66-5.12 69.12s-16.554 46.071-34.56 64c-15.013 14.95-36.574 24.376-60.8 27.52l-11.52 23.68c-3.401 6.876-10.367 11.52-18.418 11.52-0.050 0-0.1 0-0.15-0.001-65.946 0-117.144-22.59-150.392-57.6-14.759 8.486-32.032 13.852-51.2 16l-14.080 30.080c-3.401 6.876-10.367 11.52-18.418 11.52-0.050 0-0.1 0-0.15-0.001zM426.88 876.8l12.8-26.24c3.401-6.876 10.367-11.52 18.418-11.52 0.050 0 0.1 0 0.15 0.001 25.842 0 43.114-8.62 56.952-22.4s23.79-33.536 29.44-55.68c5.65-22.144 7.058-46.283 5.12-66.56s-8.187-36.962-12.16-42.24c-2.784-3.468-4.469-7.923-4.469-12.771 0-8.78 5.525-16.27 13.288-19.183 0.136-0.247-0.078-0.16 0.141-0.686 1.251-3.007 2.926-9.181 1.92-17.92-2.228-19.29-6.985-28.955-10.24-33.28s-5.015-3.886-4.48-3.84c-9.86-0.915-17.645-8.7-18.554-18.479-1.749-17.062-8.424-37.609-16.006-53.841-3.791-8.116-7.457-14.93-10.88-19.84-2.225-3.192-4.297-5.542-5.12-6.4-6.165-3.607-10.241-10.197-10.241-17.738 0-0.064 0-0.128 0.001-0.192 0-19.378-1.92-60.338-1.92-81.91 0.011-2.531 0.48-4.949 1.327-7.181 6.999-19.618 20.532-34.099 36.433-45.939-11.138-28.019-17.28-58.306-17.28-90.24 0-28.775 4.947-56.234 14.080-81.92h-419.2c5.098 27.802 14.427 49.977 28.8 66.56 18.199 20.997 42.801 36.661 69.76 49.92s55.542 23.867 81.28 38.4c25.738 14.533 49.574 33.709 60.16 63.36 0.8 2.091 1.269 4.509 1.28 7.035v81.925c-0.171 7.364-4.203 13.75-10.143 17.228-0.102-0.046-0.082 0.335-0.737 0.692-0.698 0.841-1.977 2.882-3.84 5.76-3.105 4.797-6.819 11.716-10.24 19.84-6.841 16.248-12.93 36.873-14.72 54.4-0.915 9.86-8.7 17.645-18.479 18.554 0.454-0.039-0.666-0.479-3.921 3.846s-8.012 13.99-10.24 33.28c-1.887 16.27 6.561 22.038 5.12 21.12 5.721 3.697 9.455 10.042 9.455 17.26 0 3.020-0.654 5.887-1.827 8.468-23.159 53.76-19.451 110.549 8.372 154.112 26.261 41.116 75.291 70.936 150.4 74.24zM662.4 875.52l8.96-18.56c3.401-6.876 10.367-11.52 18.418-11.52 0.050 0 0.1 0 0.15 0.001 20.989 0 34.323-6.858 45.432-17.92s19.667-27.206 24.32-45.44c4.653-18.234 5.437-38.336 3.84-55.040s-6.914-30.352-9.6-33.92c-2.521-3.365-4.036-7.61-4.036-12.209 0-8.127 4.733-15.149 11.594-18.458 0.915-1.959 1.562-6.588 0.762-13.493-1.82-15.863-5.411-23.865-7.68-26.88-1.135-1.507-1.71-1.802-1.92-1.92-9.398-1.15-16.77-8.522-17.91-17.821-1.434-13.89-6.552-30.866-12.81-44.259-3.129-6.696-6.858-12.705-9.6-16.64-2.056-2.951-4.626-5.003-4.48-5.12-5.441-3.737-8.963-9.925-8.963-16.936 0-0.121 0.001-0.242 0.003-0.362 0-18.301-0.141-34.866 0.64-53.742-72.863-11.362-135.275-54.566-172.16-115.2-7.231 6.761-12.281 13.985-15.36 21.76 0.18 18.748 1.703 48.361 1.92 69.12 2.285 2.671 5.526 4.59 7.68 7.68 5.207 7.469 10.104 16.359 14.72 26.24 8.004 17.134 13.993 37.873 17.28 58.24 5.97 3.317 12.496 3.882 17.28 10.24 9.228 12.263 15.131 29.612 17.92 53.76 1.677 14.568 0.014 27.594-4.48 38.4-1.656 3.981-6.393 5.517-8.96 8.96 6.586 13.995 13.603 27.691 15.36 46.080 2.387 24.979 0.583 53.271-6.4 80.64-5.71 22.379-15.483 44.139-30.080 62.72 23.116 23.388 58.903 38.987 108.16 41.6zM737.28 427.52c113.35 0 204.8-91.45 204.8-204.8s-91.45-204.8-204.8-204.8c-113.35 0-204.8 91.45-204.8 204.8 0 27.637 5.495 54.055 15.36 78.080 5.506 3.729 9.077 9.954 9.077 17.013 0 0.77-0.043 1.531-0.125 2.279 34.51 64.166 102.256 107.428 180.488 107.428zM753.28 406.4l-2.56-40.96 14.72-1.92 1.28-0.64h0.64l1.28 6.4 8.32 33.28-1.28 0.64h-2.56l-16 2.56-1.28 0.64h-2.56zM708.48 404.48l-7.040-1.28h-2.56l-12.16-3.2 10.24-39.68 10.24 2.56 1.92 0.64 5.76 0.64-6.4 40.32zM818.56 387.84l-17.92-37.12 3.84-1.28 1.92-1.28 10.24-6.4 21.12 35.2-11.52 7.040-1.28 0.64-0.64 0.64-5.76 2.56zM644.48 382.080l-9.6-5.76-1.28-1.28-7.68-5.76 24.96-32.64 5.12 4.48 1.28 0.64 0.64 0.64 7.68 4.48-21.12 35.2zM872.96 346.88l-30.080-27.52 4.48-4.48 1.28-1.92 5.76-7.68 32.64 24.96-7.040 8.96-1.28 1.28-5.76 6.4zM593.28 337.28l-8.32-10.88-1.28-1.28-3.2-5.76 35.2-21.12 2.56 5.12 0.64 0.64 7.040 8.96-32.64 24.32zM693.12 314.88l-17.28-94.72h31.36c3.441 4.751 10.696 13.44 26.24 13.44 5.55 0 29.44-2.017 29.44-32 0-10.65-6.113-33.28-29.44-33.28-21.709 0-27.341 18.396-28.16 26.24h-34.56c-0.328-20.623 14.126-54.4 63.36-54.4 46.776 0 64 38.83 64 61.44 0 11.858-6.405 58.24-53.12 58.24-19.743 0-28.549-8.049-33.28-12.8h-0.64l7.040 39.040h70.4v28.8h-95.36zM908.8 289.28l-38.4-14.080 3.2-8.96v-0.64l0.64-1.28 1.92-6.4 39.68 10.24-2.56 8.32v1.92l-4.48 10.88zM561.92 279.040l-0.64-0.64v-1.92l-4.48-15.36v-2.56l-0.64-3.2 40.32-5.76v1.28l0.64 1.92 3.2 11.52v0.64l0.64 1.28-14.080 3.84-24.96 8.96zM880.64 224v-2.56l-0.64-12.16-0.64-3.84 40.96-5.76v3.2l0.64 1.28v0.64l0.64 16.64-20.48 1.28h-3.2l-17.28 1.28zM594.56 213.12l-40.96-1.92v-7.040l0.64-1.28 1.92-13.44 40.32 5.76-1.92 11.52v6.4zM870.4 170.88l-0.64-3.2-0.64-0.64v-1.28l-5.76-11.52 36.48-17.92 7.040 13.44v1.28l0.64 0.64 1.92 5.12-39.040 14.080zM607.36 163.2l-37.12-17.92 4.48-9.6 0.64-0.64 0.64-1.28 4.48-8.32 35.2 21.76-3.84 6.4-1.28 1.92-3.2 7.68zM842.88 126.080l-12.8-12.8 27.52-30.080 9.6 8.32 1.28 1.28 5.12 5.76-30.72 27.52zM637.44 120.32l-27.52-30.72 9.6-8.32 1.28-1.28 5.76-4.48 24.32 32.64-3.84 3.2-1.92 1.28-7.68 7.68zM801.28 94.72l-7.040-3.84-9.6-3.2 14.080-38.4 9.6 3.2 0.64 0.64h1.28l8.96 4.48-17.92 37.12zM680.32 90.88l-14.080-38.4 15.36-5.76h1.92l3.84-1.28 10.24 39.68-17.28 5.76zM751.36 80l-12.8-0.64h-5.12l-1.92-40.96h7.040l14.72 0.64-1.92 40.96z" />
<glyph unicode="&#xe938;" glyph-name="Phone" d="M277 864c-16.751 0-33.312-6.049-47-17l-2-1-1-1-100-103 1-1c-30.831-28.523-40.407-71.133-27-108 0.069-0.198-0.069-0.801 0-1 27.104-77.682 96.547-227.547 232-363 135.983-135.983 287.902-202.614 363-232h1c38.919-12.973 80.978-3.733 111 22l101 101c26.559 26.559 26.559 72.441 0 99l-130 130-1 2c-26.559 26.559-73.441 26.559-100 0l-64-64c-23.137 11.066-78.284 39.68-131 90-52.341 49.962-79.161 107.445-89 130l64 64c26.936 26.936 27.348 71.576-1 98l1 1-3 3-129 133-2 1c-13.688 10.951-30.249 17-47 17zM277 800c2.344 0 4.688-1.151 7-3l131-134c-0.253 0.202 1.932-3.068-2-7l-80-80-15-14 7-20c0 0 36.81-98.319 114-172l7-6c74.338-67.897 162-105 162-105l20-9 95 95c5.441 5.441 4.559 5.441 10 0l131-131c5.441-5.441 5.441-3.559 0-9l-98-98c-14.778-12.667-30.319-15.227-49-9-72.553 28.479-213.432 90.432-339 216-126.601 126.601-192.759 270.308-217 340-4.88 13.013-1.348 32.273 10 42l2 2 97 99c2.312 1.849 4.656 3 7 3z" />
<glyph unicode="&#xe939;" glyph-name="Price-Tag-USD" d="M586.24 919.040c-6.852-0.087-13.961-0.346-21.12-1.28-14.055-1.833-29.43-6.498-40.96-19.2-0.215-0.237-0.428-0.397-0.64-0.64l-464-464c-22.611-22.611-22.299-59.178-1.28-83.2l1.28-1.28 355.84-356.48c22.611-22.611 59.178-21.659 83.2-0.64l0.64 0.64h0.64l464.64 465.28c23.301 23.301 20.48 55.296 20.48 81.92v3.2c0.001-0.015 0.139-0.147 0 0.64-0.020 0.119 0.031 0.482 0 0.64-0.039 0.79 0.041 2.673 0 3.84-0.059 1.763-0.582 3.275-0.64 5.76-0.193 8.259-0.496 20.317-0.64 34.56-0.287 28.485-0.512 66.327-0.64 104.32-0.256 75.986 0 152.192 0 154.24 0 39.4-32.28 71.68-71.68 71.68h-305.28c-6.393 0-12.988 0.087-19.84 0zM586.24 878.080c6.076 0.009 12.921 0 19.84 0h305.28c17.944 0 30.72-12.776 30.72-30.72 0-2.048-0.256-78.162 0-154.24 0.129-38.039 0.351-76.293 0.64-104.96 0.145-14.334 0.44-25.947 0.64-34.56 0.1-4.307 0.511-8.226 0.64-10.88 0.051-1.061-0.078-1.61 0-2.56 0.019-0.238-0.023-0.394 0-0.64-0.070-26.181-3.012-47.172-8.32-52.48l-464-464c-0.229-0.201-0.406-0.451-0.64-0.64-8.702-7.029-20.338-5.902-26.24 0l-356.48 355.84c-7.031 8.703-5.902 20.978 0 26.88l465.92 465.92c2.752 3.145 6.766 5.196 16 6.4 4.617 0.602 9.924 0.631 16 0.64zM798.72 816.64c-45.001 0-81.92-36.919-81.92-81.92s36.919-81.92 81.92-81.92c45.001 0 81.92 36.919 81.92 81.92s-36.919 81.92-81.92 81.92zM798.72 775.68c22.864 0 40.96-18.096 40.96-40.96s-18.096-40.96-40.96-40.96c-22.864 0-40.96 18.096-40.96 40.96s18.096 40.96 40.96 40.96zM661.76 611.84l-33.28-32.64c-26.624 20.48-87.808 42.752-136.96-6.4-92.16-92.16 90.112-179.968 20.48-249.6-24.576-24.576-55.424-34.816-100.48 10.24s-22.272 92.288-3.84 110.72l-28.8 28.16c-57.344-67.584-28.8-124.928-8.32-153.6l-28.8-28.16 28.8-28.8 26.88 26.24c26.624-18.432 93.824-52.864 149.12 4.48 47.104 47.104 22.912 100.096-5.76 147.2-24.576 38.912-43.392 73.728-14.72 102.4 12.288 12.288 47.232 37.248 90.24-5.76 30.72-30.72 26.752-63.616 8.32-90.24l28.8-28.8c22.528 40.96 38.656 83.968 3.84 133.12l32.64 32.64-28.16 28.8z" />
<glyph unicode="&#xe93a;" glyph-name="Qiwi" horiz-adv-x="977" d="M773.966 273.656c-9.702 3.623-10.561-7.819-8.105-15.208 5.363-17.377 12.67-30.661 18.032-33.301 5.076-3.111 11.134 4.053 7.266 21.43-1.678 7.553-7.368 23.21-17.193 27.079zM697.704 241.501c-0.143 0.082-0.266 0.082-0.409 0.225-0.327 0-0.532 0.102-0.716 0.205-0.368 0.123-0.614 0.266-0.921 0.389-0.205 0-0.45 0-0.512 0.041-0.471 0.164-0.942 0.287-1.433 0.43-6.12 1.064-12.178 0.143-17.193-3.070-11.421-7.798-13.181-25.257-3.848-39.257 4.38-6.325 10.193-10.684 16.477-13.14 0.123 0 0.246 0 0.512-0.143 0.184-0.041 0.43-0.205 0.634-0.205 0.287-0.164 0.553-0.164 0.839-0.205 0.307 0 0.409-0.164 0.553-0.266 0.512-0.082 0.921-0.266 1.392-0.348 6.058-1.228 12.158-0.368 17.234 3.070 11.482 7.757 13.202 25.196 3.848 39.093-4.257 6.447-10.152 10.93-16.456 13.181zM968.307-33.401c-27.795 56.634-77.184 98.143-130.605 130.031-18.544 11.073-39.503 18.851-57.719 24.827-41.938 13.55-82.546 16.702-129.888 24.807-38.52 6.57-68.874 22.453-101.499 44.558-16.988 11.585-30.906 27.55-42.491 44.415-2.129 3.418-13.017 16.64-11.912 21.143 0 0-7.594-30.272 7.389-72.763-137.686 6.202-258.384 82.505-313.668 175.101-101.786 170.291-65.906 376.688 69.774 467.831 135.64 91.204 342.507 26.874 453.217-137.727 69.508-103.301 87.315-223.467 57.555-321.2-0.225-0.757-0.491-1.474-0.737-2.211-58.824 42.778-112.552 20.918-112.552 20.918 58.947 6.12 105.572-40.813 105.572-40.813 6.816-6.12 13.406-12.833 19.362-20.304 1.351-1.842 2.763-3.684 4.073-5.608 15.433-20.959 25.093-44.272 29.187-67.932 117.075 148.514 136.397 354.235 32.81 513.944-131.935 203.592-413.325 255.58-628.236 116.257-215.034-139.447-282.332-417.357-150.315-620.909 108.438-167.549 362.831-218.616 508.664-172.481 55.079 17.377 243.893 33.854 375.296-121.333 0 0 11.36-13.058 17.5-27.754 0 0 1.842-5.219 6.693-2.722 1.31 0.696 4.953 4.892-7.471 29.924z" />
<glyph unicode="&#xe93b;" glyph-name="Rain" d="M512 832c-103.232 0-192.904-72.216-217-171-39.904-15.456-73.008-47.056-90-86-111.904 8.288-205-80.696-205-191 0-105.888 86.112-192 192-192h64l32 64h-96c-70.592 0-128 57.408-128 128s57.408 128 128 128c8.864 0 17.888-0.728 28-3l32-7 6 31c7.872 35.392 36.576 63.552 72 72l21 5 3 21c11.488 77.856 79.376 137 158 137 60.608 0 115.576-33.696 143-88l12-25 27 9c14.944 5.248 28.624 8 42 8 70.592 0 128-57.408 128-128 0-1.216 0.16-2.816 0-4-0.288-2.176-0.808-3.76-1-6l-2-23 21-9c47.264-20.16 78-66.64 78-118 0-70.592-57.408-128-128-128h-64l32-64h32c105.888 0 192 86.112 192 192 0 69.28-36.96 131.984-96 166-3.36 102.944-88.256 186-192 186-12.448 0-25.328-1.28-38-4-41.28 62.304-110.096 100-186 100zM576 512c0 0-64-92.64-64-128s28.64-64 64-64c35.36 0 64 28.64 64 64s-64 128-64 128zM416 352c0 0-64-92.64-64-128s28.64-64 64-64c35.36 0 64 28.64 64 64s-64 128-64 128zM672 256c0 0-64-92.64-64-128s28.64-64 64-64c35.36 0 64 28.64 64 64s-64 128-64 128z" />
<glyph unicode="&#xe93c;" glyph-name="Rebalance-Portfolio" d="M727 880l-12-34-10-29c-57.702 30.177-123.466 47-193 47-229.361 0-416-186.639-416-416s186.639-416 416-416c229.361 0 416 186.639 416 416 0 54.248-11.021 105.483-30 153l36 13 33 11-14 32c-37.847 88.102-105.962 162.287-194 207l-32 16zM476 798c1.313 0.133 2.683-0.118 4 0v-318h-318c15.087 167.764 146.78 301.079 314 318zM544 798c49.63-4.507 96.489-19.129 138-42l-72-201-23-64 64 23 187 66c16.46-40.742 26-85.272 26-132 0-85.717-30.295-164.026-81-225l-239 239v336zM761 784c48.353-31.71 86.53-73.257 114-123l-182-64 68 187zM162 416h336l239-239c-60.974-50.705-139.283-81-225-81-183.943 0-333.843 140.347-350 320z" />
<glyph unicode="&#xe93d;" glyph-name="Sales-Performance" d="M688 800c-52.532 0-100.568-8.986-138-26-18.716-8.507-35.133-19.173-48-33s-22-32.443-22-53v-141c-2.029 1.004-3.912 2.051-6 3-37.432 17.014-85.468 26-138 26s-100.568-8.986-138-26c-18.716-8.507-35.133-19.173-48-33s-22-32.443-22-53v-256c0-20.724 10.006-39.14 23-53s29.219-24.549 48-33c37.561-16.903 85.089-26 137-26s99.439 9.097 137 26c18.781 8.451 35.006 19.14 48 33s23 32.276 23 53v14c2.466-1.239 4.437-2.847 7-4 37.561-16.903 85.089-26 137-26s99.439 9.097 137 26c18.781 8.451 35.006 19.14 48 33s23 32.276 23 53v384c0 20.557-9.133 39.173-22 53s-29.284 24.493-48 33c-37.432 17.014-85.468 26-138 26zM688 736c44.671 0 84.732-9.060 111-21 13.134-5.97 23.054-12.685 28-18s5-7.466 5-9c0-1.534-0.054-3.685-5-9s-14.866-12.030-28-18c-26.268-11.94-66.329-21-111-21s-84.732 9.060-111 21c-13.134 5.97-23.054 12.685-28 18s-5 7.466-5 9c0 1.534 0.054 3.685 5 9s14.866 12.030 28 18c26.268 11.94 66.329 21 111 21zM544 605c2.029-1.004 3.912-2.051 6-3 37.432-17.014 85.468-26 138-26s100.568 8.986 138 26c2.088 0.949 3.971 1.996 6 3v-45c0-1.676 0.006-4.66-5-10s-14.781-12.051-28-18c-26.439-11.897-66.911-20-111-20s-84.561 8.103-111 20c-13.219 5.949-22.994 12.66-28 18s-5 8.324-5 10v45zM336 512c44.671 0 84.732-9.060 111-21 13.134-5.97 23.054-12.685 28-18s5-7.466 5-9c0-1.534-0.054-3.685-5-9s-14.866-12.030-28-18c-26.268-11.94-66.329-21-111-21s-84.732 9.060-111 21c-13.134 5.97-23.054 12.685-28 18s-5 7.466-5 9c0 1.534 0.054 3.685 5 9s14.866 12.030 28 18c26.268 11.94 66.329 21 111 21zM544 478c2.466-1.239 4.437-2.847 7-4 37.561-16.903 85.089-26 137-26s99.439 9.097 137 26c2.563 1.153 4.534 2.761 7 4v-46c0-1.676 0.006-4.66-5-10s-14.781-12.051-28-18c-26.439-11.897-66.911-20-111-20s-84.561 8.103-111 20c-13.219 5.949-22.994 12.66-28 18s-5 8.324-5 10v46zM192 381c2.029-1.004 3.912-2.051 6-3 37.432-17.014 85.468-26 138-26s100.568 8.986 138 26c2.088 0.949 3.971 1.996 6 3v-45c0-1.676 0.006-4.66-5-10s-14.781-12.051-28-18c-26.439-11.897-66.911-20-111-20s-84.561 8.103-111 20c-13.219 5.949-22.994 12.66-28 18s-5 8.324-5 10v45zM544 350c2.466-1.239 4.437-2.847 7-4 37.561-16.903 85.089-26 137-26s99.439 9.097 137 26c2.563 1.153 4.534 2.761 7 4v-46c0-1.676 0.006-4.66-5-10s-14.781-12.051-28-18c-26.439-11.897-66.911-20-111-20s-84.561 8.103-111 20c-13.219 5.949-22.994 12.66-28 18s-5 8.324-5 10v46zM192 254c2.466-1.239 4.437-2.847 7-4 37.561-16.903 85.089-26 137-26s99.439 9.097 137 26c2.563 1.153 4.534 2.761 7 4v-46c0-1.676 0.006-4.66-5-10s-14.781-12.051-28-18c-26.439-11.897-66.911-20-111-20s-84.561 8.103-111 20c-13.219 5.949-22.994 12.66-28 18s-5 8.324-5 10v46z" />
<glyph unicode="&#xe93e;" glyph-name="Security-Checked" d="M512 960c-50.218 0-92.606-27.795-155.52-60.16s-147.277-71.551-279.040-100.48l-16-3.84v-16c0-313.763 109.989-523.426 220.16-653.44s222.080-181.76 222.080-181.76l8.96-4.48 8.96 4.48c0 0 440.96 227.828 440.96 835.2v16l-16 3.84c-131.763 28.929-216.126 68.115-279.040 100.48s-105.302 60.16-155.52 60.16zM512 919.040c33.709 0 72.698-22.622 136.96-55.68 61.016-31.388 146.898-69.865 271.36-99.2-7.486-555.396-382.63-763.713-408.96-777.6-12.686 6.16-101.334 50.455-199.040 165.76-102.946 121.488-204.882 316.949-208.64 611.84 124.462 29.335 210.344 67.812 271.36 99.2 64.262 33.058 103.251 55.68 136.96 55.68zM669.44 660.48l-10.88-17.28-166.4-258.56-110.080 99.2-14.72 13.44-27.52-30.080 15.36-14.080 126.72-115.2 17.92-16 13.44 20.48 179.84 279.040 10.88 17.28-34.56 21.76z" />
<glyph unicode="&#xe93f;" glyph-name="Sleet" d="M512 832c-103.232 0-192.904-72.216-217-171-39.904-15.456-73.008-47.056-90-86-111.904 8.288-205-80.696-205-191 0-105.888 86.112-192 192-192h128l-32 64h-96c-70.592 0-128 57.408-128 128s57.408 128 128 128c8.864 0 17.888-0.728 28-3l32-7 6 31c7.872 35.392 36.576 63.552 72 72l21 5 3 21c11.488 77.856 79.376 137 158 137 60.608 0 115.576-33.696 143-88l12-25 27 9c14.944 5.248 28.624 8 42 8 70.592 0 128-57.408 128-128 0-1.216 0.16-2.816 0-4-0.288-2.176-0.808-3.76-1-6l-2-23 21-9c47.264-20.16 78-66.64 78-118 0-70.592-57.408-128-128-128h-64l32-64h32c105.888 0 192 86.112 192 192 0 69.28-36.96 131.984-96 166-3.36 102.944-88.256 186-192 186-12.448 0-25.328-1.28-38-4-41.28 62.304-110.096 100-186 100zM448 480v-72l-63 36-32-56 62-36-62-36 32-56 63 36v-72h64v72l63-36 32 56-62 36 62 36-32 56-63-36v72h-64zM672 224c0 0-64-92.64-64-128s28.64-64 64-64c35.36 0 64 28.64 64 64s-64 128-64 128z" />
<glyph unicode="&#xe940;" glyph-name="Smoking" d="M513 832c-11.561-11.561-20.028-25.159-30-47s-18.913-49.436-19-80c-0.086-30.564 10.471-65.662 38-92s69.469-43.533 128-51c48.796-6.223 80.154-14.292 98-25s25.232-21.793 31-48l63 14c-8.312 37.761-29.182 69.908-61 89s-70.932 27.359-123 34c-49.837 6.357-77.767 20.383-92 34s-18.049 27.568-18 45c0.049 17.432 5.646 36.894 13 53s18.753 30.753 17 29l-45 45zM690 822v-64c19.867 0 45.493-2.948 65-14s36.055-27.221 40-74l3-30h29c16.522 0 50.935-5.095 68-20 8.532-7.453 13.999-16.239 16-33s-0.941-42.337-16-79l60-24c17.853 43.465 23.741 79.659 20 111s-18.972 56.381-38 73c-28.937 25.275-60.292 31.781-86 34-11.068 46.259-34.212 81.122-64 98-35.885 20.332-73.251 22-97 22zM32 448v-192h960v192h-960zM96 384h640v-64h-640v64zM800 384h32v-64h-32v64zM896 384h32v-64h-32v64z" />
<glyph unicode="&#xe941;" glyph-name="Snow" d="M512 832c-103.232 0-192.904-72.216-217-171-39.904-15.456-73.008-47.056-90-86-111.904 8.288-205-80.696-205-191 0-105.888 86.112-192 192-192h96v64h-96c-70.592 0-128 57.408-128 128s57.408 128 128 128c8.864 0 17.888-0.728 28-3l32-7 6 31c7.872 35.392 36.576 63.552 72 72l21 5 3 21c11.488 77.856 79.376 137 158 137 60.608 0 115.576-33.696 143-88l12-25 27 9c14.944 5.248 28.624 8 42 8 70.592 0 128-57.408 128-128 0-1.216 0.16-2.816 0-4-0.288-2.176-0.808-3.76-1-6l-2-23 21-9c47.264-20.16 78-66.64 78-118 0-70.592-57.408-128-128-128h-64v-64h64c105.888 0 192 86.112 192 192 0 69.28-36.96 131.984-96 166-3.36 102.944-88.256 186-192 186-12.448 0-25.328-1.28-38-4-41.28 62.304-110.096 100-186 100zM640 544v-72l-63 36-32-56 62-36-62-36 32-56 63 36v-72h64v72l63-36 32 56-62 36 62 36-32 56-63-36v72h-64zM448 288v-72l-63 36-32-56 62-36-62-36 32-56 63 36v-72h64v72l63-36 32 56-62 36 62 36-32 56-63-36v72h-64z" />
<glyph unicode="&#xe942;" glyph-name="Sprout" d="M691.2 960c-59.483-1.821-150.783-13.506-202.24-76.8-18.986-23.35-30.499-48.554-35.2-72.32s-3.289-47.412 10.24-65.28c15.647-20.67 38.462-27.283 60.8-26.88-9.357-35.68-14.141-74.251-16.64-114.56-5.044-81.356-0.209-169.396 1.92-253.44-12.224 24.681-27.218 47.521-45.44 68.48-8.172 9.399-17.485 18.351-26.88 26.88 19.087 16.492 31.168 41.131 26.88 71.040-9.994 69.751-94.862 154.806-251.52 131.84-58.831-8.626-127.266-37.523-202.88-81.92-6.002-3.644-9.95-10.144-9.95-17.567 0-7.937 4.514-14.819 11.115-18.22 10.837-5.209 24.377-22.803 37.875-48.054s27.67-56.714 45.44-87.68c17.77-30.966 39.333-61.811 70.4-83.2s71.331-32.626 120.32-25.6c57.298 8.219 99.463 35.471 123.52 67.84 10.378 13.963 16.402 28.674 19.2 43.52 1.827-1.981 4.002-3.738 5.76-5.76 52.194-60.033 75.379-139.906 77.44-237.44-42.38-10.331-80.008-32.781-109.44-63.36-20.848 16.671-45.396 28.8-74.24 28.8-34.772 0-64.006-16.96-86.4-40.32-16.544 11.473-35.384 19.84-56.96 19.84-32.664 0-59.422-17.699-78.080-41.6-1.471 0.111-2.125 0.64-3.84 0.64-56.31 0-102.4-46.090-102.4-102.4-0.001-0.086-0.002-0.188-0.002-0.29 0-11.312 9.17-20.482 20.482-20.482s20.482 9.17 20.482 20.482c0 0.102-0.001 0.203-0.002 0.305 0 34.155 27.27 61.425 61.44 61.425 1.411 0 4.201-0.096 8.32-0.64 0.794-0.109 1.712-0.171 2.645-0.171 7.61 0 14.251 4.151 17.782 10.311 10.652 18.977 30.086 31.46 53.173 31.46 17.28 0 32.959-7.127 44.16-18.56 3.693-3.629 8.761-5.869 14.352-5.869 7.056 0 13.278 3.568 16.962 8.998 14.759 21.846 39.476 35.912 67.886 35.912 24.468 0 46.279-10.996 61.44-28.16 3.756-4.075 9.12-6.619 15.078-6.619 6.258 0 11.861 2.807 15.618 7.23 33.86 41.706 85.455 68.509 143.384 68.509 32.44 0 62.49-8.357 88.96-23.040 2.815-1.551 6.17-2.463 9.738-2.463 4.799 0 9.213 1.651 12.705 4.416 17.307 13.361 39.089 21.087 62.677 21.087 48.048 0 87.978-33.116 99.2-77.44 2.309-8.97 10.325-15.492 19.865-15.492 3.251 0 6.325 0.757 9.055 2.105 11.057 5.434 23.005 8.906 35.72 8.906 45.473 0 81.92-36.447 81.92-81.92-0.001-0.086-0.002-0.188-0.002-0.29 0-11.312 9.17-20.482 20.482-20.482s20.482 9.17 20.482 20.482c0 0.102-0.001 0.203-0.002 0.305 0 67.602-55.263 122.865-122.88 122.865-12.115 0-22.404-4.369-33.28-7.68-21.546 51.98-70.986 89.6-130.56 89.6-28.253 0-53.969-9.526-76.16-23.68-29.803 14.563-62.565 23.68-97.92 23.68-3.657 0-7.271-0.463-10.88-0.64-0.374 12.789-1.438 25.4-2.56 37.76 0.413 1.536 0.65 3.3 0.65 5.119 0 0.225-0.004 0.45-0.011 0.674 0.001 60.937 15.173 103.927 49.281 129.887 6.326 4.815 13.685 9.057 21.76 12.8-1.296-10.881-0.251-22.306 3.2-33.92 8.941-30.094 34.956-59.627 77.44-67.2 52.884-9.435 95.855 12.778 126.72 37.76 15.433 12.491 28.432 25.78 39.040 36.48s20.202 18.882 23.040 20.48c6.134 3.615 10.185 10.187 10.185 17.705 0 3.599-0.928 6.981-2.558 9.92-12.733 24.26-31.446 54.275-61.387 78.615s-70.962 42.24-124.8 42.24c-25.404 0-46.986-4.337-64-13.44s-29.59-24.567-32.64-42.88c-2.741-16.474 0.935-29.764 6.4-40.96-17.795-6.094-33.645-14.521-47.36-24.96-8.966-6.824-16.737-14.653-23.68-23.040-2.095 87.71-7.541 177.589-2.56 257.92 1.516 24.456 4.51 47.592 8.32 69.76 3.127-2.3 6.049-4.512 9.6-6.4 29.875-15.888 72.266-17.47 108.16 10.88 89.821 70.933 83.2 203.289 83.2 263.68-0.001 11.31-9.17 20.479-20.48 20.48-10.175 0-26.252 0.607-46.080 0zM715.52 917.12c-0.368-64.394-3.684-159.491-65.92-208.64-23.642-18.673-46.095-16.562-64-7.040-8.443 4.49-14.529 10.678-18.56 16.64 3.985 13.501 8.605 26.546 14.080 38.4 19.526 42.281 48.687 73.527 94.080 92.8 8.281 2.775 14.142 10.463 14.142 19.52 0 11.345-9.197 20.542-20.542 20.542-2.288 0-4.489-0.374-6.545-1.065-1.1-0.341-2.16-0.776-3.171-1.291-54.7-23.22-92.244-64.409-115.084-113.866-2.1-4.548-3.884-9.396-5.76-14.080-1.687-0.284-3.192-0.729-4.614-1.33-14.554-5.642-23.927-4.4-36.986 12.85-3.265 4.312-6.404 15.804-3.2 32s12.468 35.889 27.52 54.4c44.341 54.541 142.61 59.405 194.56 60.16zM267.52 611.84c105.438-1.509 151.675-64.708 156.8-100.48 3.168-22.096-3.603-34.796-15.36-41.6-60.752 43.746-142.408 72.906-247.68 85.12-0.962 0.16-2.070 0.252-3.2 0.252s-2.238-0.091-3.318-0.267c-10.922-0.337-19.738-9.371-19.738-20.464 0-11.316 9.174-20.49 20.49-20.49 0.227 0 0.453 0.004 0.678 0.011 103.687-12.035 179.162-40.43 233.567-81.281 3.793-12.388 1.216-33.18-14.080-53.76-17.112-23.024-48.358-44.366-96-51.2-40.325-5.784-68.178 2.489-91.52 18.56s-41.978 40.781-58.24 69.12c-16.262 28.339-29.473 59.564-44.16 87.040-8.466 15.839-18.599 29.912-29.44 42.24 62.067 33.925 118.656 57.563 162.56 64 17.543 2.572 33.577 3.416 48.64 3.2zM712.32 448c45.019 0 75.631-14.12 99.2-33.28 18.907-15.37 32.117-34.205 42.88-52.48-4.931-4.545-10.116-8.151-15.36-13.44-10.72-10.812-22.731-22.67-35.84-33.28-26.217-21.22-55.065-36.286-93.44-29.44-0.095 0.002-0.207 0.002-0.32 0.002s-0.225-0.001-0.337-0.003c-27.93 4.982-39.45 20.448-44.783 38.4-4.445 14.96-0.474 30.232 1.92 35.84 31.427 4.997 70.77 4.075 120.32-3.84 1.461-0.373 3.139-0.587 4.867-0.587 11.312 0 20.482 9.17 20.482 20.482 0 10.772-8.316 19.602-18.879 20.42-50.105 7.996-93.159 9.561-129.35 4.484-0.696-0.098-1.229-0.538-1.92-0.64-5.248 7.007-7.715 13.849-5.76 25.6 0.862 5.177 2.934 8.847 11.52 13.44s24.022 8.32 44.8 8.32z" />
<glyph unicode="&#xe943;" glyph-name="Stethoscope" d="M163.84 960c-16.264 0-30.507-9.305-37.12-23.040-8.474-1.825-19.815-4.74-31.36-8.96s-23.356-9.824-33.92-18.56c-10.564-8.736-20.48-22.192-20.48-39.040 0-7.334 1.171-15.818 3.2-29.44s4.918-31.58 8.96-51.84c8.084-40.52 20.566-91.999 37.12-145.28 32.659-105.12 79.317-217.843 156.16-264.32-0.098-1.702-0.64-3.365-0.64-5.12 0-24.494 7.31-53.7 19.84-79.36 6.265-12.83 13.958-24.263 23.68-33.92 5.196-5.161 11.58-10.124 18.56-13.44 0.71-53.246 5.818-120.802 43.52-179.2 41.4-64.125 122.046-112 263.040-112 128.32 0 203.425 53.007 242.56 113.28 32.151 49.517 41.286 101.149 43.52 133.76 69.613 9.694 123.52 69.873 123.52 142.080 0 78.915-64.466 143.36-143.36 143.36-78.928 0-143.36-64.453-143.36-143.36 0-71.509 52.933-130.886 121.6-141.44-2.467-27.929-10.681-72.266-36.48-112-32.545-50.124-90.56-94.72-208-94.72-132.066 0-194.785 41.249-228.48 93.44-30.631 47.445-36.256 106.935-37.12 157.44 6.428 3.273 12.42 7.972 17.28 12.8 9.72 9.656 17.414 21.091 23.68 33.92 12.532 25.658 19.84 54.862 19.84 79.36 0 1.755-0.542 3.418-0.64 5.12 76.843 46.477 123.501 159.2 156.16 264.32 16.554 53.281 29.036 104.76 37.12 145.28 4.042 20.26 6.931 38.218 8.96 51.84s3.2 22.106 3.2 29.44c0 16.848-9.916 30.304-20.48 39.040s-22.375 14.34-33.92 18.56c-11.545 4.22-22.886 7.135-31.36 8.96-0.373 0.080-0.279-0.076-0.64 0-6.667 13.587-20.324 23.040-36.48 23.040-22.622 0-40.96-18.338-40.96-40.96s18.338-40.96 40.96-40.96c13.807 0 25.86 6.813 33.28 17.28 6.292-1.417 13.696-3.046 21.12-5.76 8.935-3.266 17.604-7.553 22.4-11.52s5.12-5.625 5.12-7.68c0-0.797-0.651-10.865-2.56-23.68s-5.038-29.621-8.96-49.28c-7.844-39.318-19.823-89.886-35.84-141.44-30.965-99.665-80.071-202.235-135.040-238.72-4.754 3.534-9.773 6.314-14.72 7.68-17.832 4.923-33.164 1.929-48.64 1.92-15.479 0-30.811 2.999-48.64-1.92-4.947-1.365-9.966-4.145-14.72-7.68-54.969 36.485-104.075 139.055-135.040 238.72-16.017 51.554-27.996 102.122-35.84 141.44-3.922 19.659-7.051 36.465-8.96 49.28s-2.56 22.883-2.56 23.68c0 2.055 0.324 3.713 5.12 7.68s13.465 8.254 22.4 11.52c7.424 2.714 14.828 4.343 21.12 5.76 7.42-10.467 19.473-17.28 33.28-17.28 22.622 0 40.96 18.338 40.96 40.96s-18.338 40.96-40.96 40.96zM880.64 448c56.725 0 102.4-45.655 102.4-102.4 0-56.082-44.677-101.351-100.48-102.4-0.287 0.014-0.622 0.023-0.96 0.023s-0.673-0.008-1.007-0.024c-56.726 0.002-102.353 45.649-102.353 102.402s45.627 102.4 102.4 102.4zM880.64 407.040c-33.715 0-61.44-27.77-61.44-61.44s27.725-61.44 61.44-61.44c33.695 0 61.44 27.745 61.44 61.44s-27.745 61.44-61.44 61.44zM303.36 385.92c6.58 0.008 15.082 0 24.32 0 18.46 0.011 33.356 0.576 37.76-0.64 2.202-0.608 1.745 0.273 1.92 0s1.28-3.399 1.28-10.88c0-14.987-6.296-41.571-16-61.44-4.852-9.934-10.378-18.091-15.36-23.040-3.951-3.925-6.636-4.741-8.32-5.12-0.383 0.026-0.83 0.040-1.28 0.040s-0.897-0.015-1.34-0.043c-1.626 0.382-4.309 1.199-8.26 5.123-4.982 4.948-10.509 13.106-15.36 23.040-9.701 19.867-16 46.449-16 61.44 0 7.483 1.107 10.61 1.28 10.88 0.174 0.27-0.281-0.607 1.92 0s6.86 0.632 13.44 0.64zM880.64 366.080c11.566 0 20.48-8.914 20.48-20.48s-8.914-20.48-20.48-20.48c-11.627 0-20.48 8.889-20.48 20.48s8.853 20.48 20.48 20.48z" />
<glyph unicode="&#xe944;" glyph-name="Storm" d="M512 832c-103.232 0-192.904-72.216-217-171-39.904-15.456-73.008-47.056-90-86-111.904 8.288-205-80.696-205-191 0-105.888 86.112-192 192-192h256v32l-96 32h-160c-70.592 0-128 57.408-128 128s57.408 128 128 128c8.864 0 17.888-0.728 28-3l32-7 6 31c7.872 35.392 36.576 63.552 72 72l21 5 3 21c11.488 77.856 79.376 137 158 137 60.608 0 115.576-33.696 143-88l12-25 27 9c14.944 5.248 28.624 8 42 8 70.592 0 128-57.408 128-128 0-1.216 0.16-2.816 0-4-0.288-2.176-0.808-3.76-1-6l-2-23 21-9c47.264-20.16 78-66.64 78-118 0-70.592-57.408-128-128-128h-128l-32-64h160c105.888 0 192 86.112 192 192 0 69.28-36.96 131.984-96 166-3.36 102.944-88.256 186-192 186-12.448 0-25.328-1.28-38-4-41.28 62.304-110.096 100-186 100zM544 496l-96-207 96-32v-177l96 208-96 32v176z" />
<glyph unicode="&#xe945;" glyph-name="Suitcase" d="M448 864c-34.978 0-64-29.022-64-64v-32h-96v32h-64v-32h-64c-34.978 0-64-29.022-64-64v-512c0-34.978 29.022-64 64-64h704c34.978 0 64 29.022 64 64v512c0 34.978-29.022 64-64 64h-64v32h-64v-32h-96v32c0 34.978-29.022 64-64 64h-128zM448 800h128v-32h-128v32zM160 704h704v-512h-64v480h-64v-480h-448v480h-64v-480h-64v512z" />
<glyph unicode="&#xe946;" glyph-name="Sun-Lounger" d="M426.24 919.040c-3.187-0.683-5.986-2.022-8.366-3.874l-368.594-266.206c-5.247-3.758-8.626-9.835-8.626-16.702 0-10.743 8.271-19.554 18.793-20.413l225.353-20.485c0.287-0.014 0.622-0.023 0.96-0.023s0.673 0.008 1.007 0.024l122.833-0.002v-368.64h40.96v368.64h122.88c0.287-0.014 0.622-0.023 0.96-0.023s0.673 0.008 1.007 0.024l225.233 20.478c10.595 0.864 18.866 9.675 18.866 20.418 0 6.866-3.379 12.944-8.564 16.66l-368.702 266.282c-3.397 2.598-7.704 4.163-12.377 4.163-1.28 0-2.533-0.117-3.749-0.342zM430.080 852.48l110.080-220.16h-220.16l110.080 220.16zM374.4 833.28l-99.84-199.68-156.16 14.080 256 185.6zM486.4 832.64l255.36-184.96-156.16-14.080-99.2 199.040zM940.8 387.2c-1.9-0.226-3.631-0.677-5.258-1.329-1.8-0.402-3.507-1.062-5.089-1.925l-362.133-181.706h-506.88c-0.287 0.014-0.622 0.023-0.96 0.023s-0.673-0.008-1.007-0.024c-10.407-1.013-18.513-9.755-18.513-20.39 0-0.031 0-0.062 0-0.093v-81.915c0.001-11.31 9.17-20.479 20.48-20.48h40.96v-81.92c0.001-11.31 9.17-20.479 20.48-20.48h81.92c11.31 0.001 20.479 9.17 20.48 20.48v81.92h573.44v-81.92c0.001-11.31 9.17-20.479 20.48-20.48h81.92c11.31 0.001 20.479 9.17 20.48 20.48v81.92h40.96c11.31 0.001 20.479 9.17 20.48 20.48v81.92c-0.001 11.31-9.17 20.479-20.48 20.48h-46.080l-32 112.64 64 32c9.135 2.215 15.813 10.323 15.813 19.991 0 11.345-9.197 20.542-20.542 20.542-1.041 0-2.064-0.077-3.064-0.227zM846.72 295.68l26.88-93.44h-213.12l186.24 93.44zM81.92 161.28h860.16v-40.96h-860.16v40.96zM143.36 79.36h40.96v-61.44h-40.96v61.44zM839.68 79.36h40.96v-61.44h-40.96v61.44z" />
<glyph unicode="&#xe947;" glyph-name="Sun" d="M480 864v-160h64v160h-64zM240 765l-45-45 113-114 46 46-114 113zM784 765l-114-113 46-46 113 114-45 45zM512 672c-123.333 0-224-100.667-224-224s100.667-224 224-224c123.333 0 224 100.667 224 224s-100.667 224-224 224zM512 608c88.745 0 160-71.255 160-160s-71.255-160-160-160c-88.745 0-160 71.255-160 160s71.255 160 160 160zM96 480v-64h160v64h-160zM768 480v-64h160v64h-160zM308 290l-113-114 45-45 114 113-46 46zM716 290l-46-46 114-113 45 45-113 114zM480 192v-160h64v160h-64z" />
<glyph unicode="&#xe948;" glyph-name="Swim-Ring" d="M512 832c-175.377 0-328.797-87.403-402-216-0.269-0.411-0.736-0.583-1-1-28.377-50.299-45-106.816-45-167 0-214.843 203.616-384 448-384s448 169.157 448 384c0 60.184-16.623 116.701-45 167-0.264 0.417-0.731 0.589-1 1-73.202 128.597-226.623 216-402 216zM472 766c2.604 0.222 5.379-0.179 8 0v-64c-55.821-5.594-106.731-25.146-146-56-9.052-7.112-17.225-15.699-25-24-20.079 17.089-45.709 28.571-72 35-3.899 0.953-8.060 1.305-12 2 61.735 58.305 147.851 98.553 247 107zM544 766c102.399-6.975 191.644-47.164 255-107-3.94-0.695-8.101-1.047-12-2-26.291-6.429-51.921-17.911-72-35-7.775 8.301-15.948 16.888-25 24-39.269 30.854-90.179 50.406-146 56v64zM512 640c55.062 0 104.682-18.036 139-45s53-61.404 53-99c0-37.596-18.682-72.036-53-99s-83.938-45-139-45c-55.062 0-104.682 18.036-139 45s-53 61.404-53 99c0 37.596 18.682 72.036 53 99s83.938 45 139 45zM202 598c6.259-0.15 13.048-1.3 20-3 19.507-4.77 37.531-16.887 49-28-9.787-22.053-15-46.061-15-71 0-49.027 21.481-93.128 55-128-14.848-8.683-29.392-19.602-43-33-23.159-22.802-43.883-53.557-53-89-54.38 55.528-87 125.89-87 202 0 47.255 12.536 92.234 35 133 0.578 0.913 1.398 1.193 2 2 5.134 6.883 11.032 10.671 20 13 5.010 1.301 10.741 2.15 17 2zM822 598c6.259 0.15 11.99-0.699 17-2 10.020-2.603 16.496-6.304 22-15 22.464-40.766 35-85.745 35-133 0-76.11-32.62-146.472-87-202-9.117 35.443-29.841 66.198-53 89-13.608 13.398-28.152 24.317-43 33 33.519 34.872 55 78.973 55 128 0 24.939-5.213 48.947-15 71 11.469 11.113 29.493 23.23 49 28 6.952 1.7 13.741 2.85 20 3zM369 322c41.1-22.38 90.377-34 143-34 52.308 0 101.052 11.872 142 34 2.086-0.239 7.631 0.079 15-3 12.281-5.13 28.198-15.411 42-29 25.082-24.695 42.714-57.778 38-94-64.839-42.491-146.981-68-237-68s-172.161 25.509-237 68c-4.714 36.222 12.918 69.305 38 94 13.802 13.589 29.719 23.87 42 29 6.141 2.565 11.319 2.767 14 3z" />
<glyph unicode="&#xe949;" glyph-name="Swiss-Army-Knife" d="M19.2 960c-8.659-1.644-15.325-8.527-16.626-17.166-3.625-23.085-4.363-58.113-0.014-95.474s13.519-76.725 34.56-105.6l270.080-375.68v-140.8c-9.008 4.275-19.055 9.96-29.44 17.28-27.567 19.43-52.48 47.635-52.48 91.52 0 25.872-1.759 48.012-7.68 67.84s-16.535 37.247-32.64 50.56c-8.533 7.058-18.297 10.484-30.080 13.44s-26.211 5.731-40.96-4.48c-5.446-3.737-8.972-9.928-8.972-16.942 0-3.648 0.954-7.073 2.625-10.040 4.068-7.145 14.313-27.44 20.427-45.337 2.544-7.448 4.312-13.6 5.12-18.56-1.524-0.023-0.963-0.555-3.2 0-6.297 1.562-14.428 5.695-22.4 13.44-15.944 15.489-31.757 46.019-28.8 103.68 0.029 0.41 0.046 0.889 0.046 1.372 0 11.312-9.17 20.482-20.482 20.482-0.692 0-1.375-0.034-2.049-0.101-20.391-1.969-38.025-16.661-45.995-35.193s-10.24-40.456-10.24-67.84c0-45.634 22.305-88.81 53.12-128.64s70.893-77.107 110.72-108.8c68.931-54.853 134.489-92.126 151.68-101.76 23.013-75.577 93.050-131.2 176-131.2 101.55 0 184.32 82.77 184.32 184.32v408.96c33.788-41.357 91.553-111.887 124.8-152.32 20.572-25.036 50.361-52.84 86.4-71.68s79.436-28.533 122.88-14.080c8.125 2.842 13.848 10.441 13.848 19.378 0 2.944-0.621 5.743-1.74 8.273-31.686 74.269-60.845 130.367-85.068 184.829-0.558 1.473-1.204 2.738-1.969 3.92-79.275 109.27-277.711 347.44-277.711 347.44-29.773 61.899-92.667 104.96-165.76 104.96-101.55 0-184.32-82.77-184.32-184.32v-102.4c-0.91 9.647-8.353 17.309-17.816 18.549l-21.864 3.211 5.12 30.080c0.17 0.993 0.267 2.137 0.267 3.303 0 10.3-7.558 18.836-17.431 20.362l-30.835 4.495 5.12 30.72c0.111 0.804 0.175 1.733 0.175 2.677 0 10.268-7.51 18.782-17.337 20.347l-30.197 5.135 4.48 30.080c0.17 0.993 0.267 2.137 0.267 3.303 0 10.3-7.558 18.836-17.431 20.362l-30.195 4.495 4.48 30.72c0.18 1.024 0.284 2.203 0.284 3.407 0 10.078-7.236 18.467-16.796 20.254l-49.408 7.7c-1.958 0.452-12.233 4.81-21.12 10.24s-16.593 10.853-23.68 14.72c-3.001 1.806-6.624 2.874-10.497 2.874-1.266 0-2.506-0.114-3.709-0.333zM491.52 919.040c58.134 0 108.022-34.319 130.56-83.84 0.222-0.796 0.441-1.435 0.689-2.058 7.687-17.51 12.111-36.897 12.111-57.462v-185.6c-0.129-0.865-0.203-1.864-0.203-2.88s0.074-2.015 0.217-2.991l-0.013-463.889c0-79.411-63.949-143.36-143.36-143.36-67.242 0-123.248 45.895-138.88 108.16-0.222 0.796-0.441 1.435-0.689 2.058-2.476 10.546-3.791 21.665-3.791 33.142v71.68c0.159 0.962 0.249 2.070 0.249 3.2s-0.091 2.238-0.265 3.319l0.016 172.041c0.159 0.962 0.25 2.070 0.25 3.2s-0.091 2.238-0.266 3.318l0.016 217.482c0.268 1.251 0.421 2.687 0.421 4.16s-0.153 2.909-0.445 4.295l0.024 172.665c0 79.411 63.949 143.36 143.36 143.36zM43.52 903.68c7.702-4.537 15.246-9.278 24.96-11.52 0.305-0.174 0.725-0.387 1.153-0.587l30.847-4.533-5.12-30.080c-0.17-0.993-0.267-2.137-0.267-3.303 0-10.3 7.558-18.836 17.431-20.362l30.195-5.135-4.48-30.080c-0.17-0.993-0.267-2.137-0.267-3.303 0-10.3 7.558-18.836 17.431-20.362l30.195-4.495-4.48-30.72c-0.111-0.804-0.175-1.733-0.175-2.677 0-10.268 7.51-18.782 17.337-20.347l30.197-5.135-5.12-30.080c-0.161-0.968-0.253-2.083-0.253-3.219 0-10.523 7.888-19.203 18.073-20.451l25.060-3.21v-30.080c-0.001-0.083-0.002-0.181-0.002-0.28 0-7.029 3.52-13.237 8.893-16.955l32.069-20.525v-149.12l-236.8 328.96c-13.283 18.229-22.97 52.173-26.88 85.76-2.399 20.61-0.575 34.976 0 51.84zM491.52 816.64c-22.622 0-40.96-18.338-40.96-40.96s18.338-40.96 40.96-40.96c22.622 0 40.96 18.338 40.96 40.96s-18.338 40.96-40.96 40.96zM675.84 768c57.091-69.358 165.827-202.311 225.28-284.16 0.158-0.216 0.484-0.425 0.64-0.64 21.094-47.1 46.088-97.369 71.68-154.88-22.733-1.536-45.239 1.96-67.2 13.44-29.553 15.449-56.781 40.192-74.24 61.44-41.619 50.614-149.738 182.849-156.16 190.72v174.080zM44.16 433.28c6.6-33.828 18.192-62.198 35.2-78.72 12.928-12.559 27.091-20.24 40.96-23.68s27.192-3.751 39.68 3.84c7.519 4.585 11.888 12.409 13.44 18.56s1.766 11.979 1.28 17.28c-0.972 10.603-4.037 20.697-7.68 31.36-2.548 7.458-5.398 11.656-8.32 18.56 10.007-8.273 15.771-17.094 19.84-30.72s5.76-31.704 5.76-55.68c0-60.030 36.527-101.565 70.4-125.44 22.128-15.597 39.957-23.502 52.48-28.16v-60.16c0-0.219-0.001-0.422 0-0.64-29.422 18.070-72.519 45.918-117.76 81.92-38.202 30.4-75.973 65.308-103.68 101.12s-44.8 71.787-44.8 103.68c0 12.894 1.942 18.004 3.2 26.88zM471.040 181.76v-40.96h-40.96v-40.96h40.96v-40.96h40.96v40.96h40.96v40.96h-40.96v40.96h-40.96z" />
<glyph unicode="&#xe94a;" glyph-name="Today" d="M288 800v-32h-128v-704h704v704h-128v32h-64v-32h-320v32h-64zM224 704h64v-32h64v32h320v-32h64v32h64v-64h-576v64zM224 576h576v-448h-576v448zM649 503l-169-169-73 73-46-46 96-96 23-22 23 22 192 192-46 46z" />
<glyph unicode="&#xe94b;" glyph-name="Todo-List" d="M270.72 849.92l-119.68-152.96-55.68 49.28-26.88-30.72 71.68-64 16-14.080 13.44 17.28 133.12 169.6-32 25.6zM389.12 755.2v-40.96h552.96v40.96h-552.96zM270.72 563.2l-119.68-152.96-55.68 49.28-26.88-30.72 71.68-64 16-14.080 13.44 17.28 133.12 169.6-32 25.6zM389.12 468.48v-40.96h552.96v40.96h-552.96zM270.72 276.48l-119.68-152.96-55.68 49.28-26.88-30.72 71.68-64 16-14.080 13.44 17.28 133.12 169.6-32 25.6zM389.12 181.76v-40.96h552.96v40.96h-552.96z" />
<glyph unicode="&#xe94c;" glyph-name="US-Capitol-2" d="M512 896c-17.673 0-32-14.327-32-32s14.327-32 32-32c17.673 0 32 14.327 32 32s-14.327 32-32 32zM512 832c-17.664 0-32-14.336-32-32v-37c-55.035-14.306-96-63.697-96-123h-32v-64h320v64h-32c0 59.303-40.965 108.694-96 123v37c0 17.664-14.336 32-32 32zM512 704c35.733 0 64-28.267 64-64h-128c0 35.733 28.267 64 64 64zM384 544v-160h-128v-64h512v64h-128v160h-64v-160h-32v160h-64v-160h-32v160h-64zM288 288v-224h-64v-64h576v64h-64v224h-64v-224h-32v224h-64v-224h-32v224h-64v-224h-32v224h-64v-224h-32v224h-64z" />
</font>
</defs>
</svg>
