<?xml version="1.0" encoding="utf-8"?>
<!-- Generator: Adobe Illustrator 16.0.0, SVG Export Plug-In . SVG Version: 6.00 Build 0)  -->
<!DOCTYPE svg PUBLIC "-//W3C//DTD SVG 1.1//EN" "http://www.w3.org/Graphics/SVG/1.1/DTD/svg11.dtd">
<svg version="1.1" id="Слой_1" xmlns="http://www.w3.org/2000/svg" xmlns:xlink="http://www.w3.org/1999/xlink" x="0px" y="0px"
	 width="141.73px" height="36.81px" viewBox="0 0 141.73 36.81" enable-background="new 0 0 141.73 36.81" xml:space="preserve">
<g>
	<g>
		<path fill="none" stroke="#010101" stroke-width="0.5" stroke-linecap="round" stroke-miterlimit="10" d="M16.712,26.379
			c0.32,0.234,1.083,0.768,2.183,1.287c2.564,1.211,2.902,1.013,6.211,2.753c2.581,1.355,4.961,1.771,4.961,1.771 M10.791,26.583
			c0.377,0.212,0.834,0.45,1.292,0.645c0.889,0.376,1.786,0.548,2.068,0.548c0.625,0,0.688-0.262,0.613-0.6
			c-0.077-0.337-0.608-1.14-0.608-1.14s1.013,0.266,1.115,0.271c0.02,0.001,0.081,0,0.166-0.003 M9.066,26.194
			c0.017-0.173,0.044-0.332,0.088-0.465c0.232-0.692,0.483-0.622,0.483-0.622s0.096,0.378,0.174,0.65 M7.808,29.719
			c0.071,0.145,0.129,0.276,0.142,0.362c0.03,0.202,0.514,2.451,1.042,2.544c0.224,0.039,0.639-0.246,0.979-0.603
			c0.354-0.37,0.63-0.814,0.63-0.872c0-0.114-0.596-1.101-0.703-1.177c-0.107-0.076-0.576-0.386-0.664-0.495
			c-0.089-0.109,0.107-0.392,0.09-0.484c-0.004-0.024-0.16-0.31-0.21-0.824 M8.88,22.65c0.151,0.408,0.325,0.853,0.325,0.853
			S8.781,23.51,8.563,23.58c-0.214,0.068-0.974,0.987-1.019,1.39c-0.042,0.371,0.162,0.849,0.13,1.478
			c-0.014,0.274-0.059,0.769-0.099,1.262 M10.16,20.396c-0.12,0.02-0.227,0.045-0.313,0.079c-0.24,0.097-0.459,0.31-0.641,0.548
			 M12.033,6.504c-0.184,0.031-0.416,0.116-0.685,0.313c-0.636,0.464-0.663,0.78-0.663,0.78S9.698,7.196,9.588,7.308
			c-0.11,0.112,0.568,0.951,0.568,0.951s-0.776,0.949-1.48,1.919c-0.63,0.87-1.176,1.772-1.212,1.873
			c-0.076,0.214-0.114,0.321-0.055,0.595c0.06,0.275,0.727,1.186,1.039,1.288c0.355,0.115,0.849,0.199,1.271-0.021
			c0.474-0.247,0.211-0.701,0.587-0.886c0.376-0.186,1.054,0.029,1.57,0.017c0.726-0.017,1.123-0.621,1.465-0.388
			c0.342,0.232,0.212,1.26,0.257,1.815c0.045,0.555,0.333,2.144,0.147,3.233c-0.075,0.44-0.414,0.949-0.663,1.447
			c-0.173,0.348-0.328,0.664-0.443,0.901 M11.837,23.033c-0.375,0.114-1.097,0.2-1.131,0.188s-0.133-0.302-0.148-0.598
			c-0.015-0.296,0.089-0.584,0.148-0.597c0.118-0.025,1.896,0.661,1.904,0.712C12.619,22.789,12.213,22.92,11.837,23.033z"/>
		<g>
			<path fill="none" stroke="#010101" stroke-width="0.5" stroke-linecap="round" stroke-miterlimit="10" d="M22.092,26.284
				c0.833,0.656,2.028,1.476,3.729,2.429c4.66,2.611,5.533,2.381,5.533,2.381"/>
			<path fill="none" stroke="#010101" stroke-width="0.5" stroke-linecap="round" stroke-miterlimit="10" d="M18.45,12.667
				c0.024,0.322,0.038,0.915-0.038,1.888c-0.128,1.646-1.116,2.195-1.369,2.617c-0.107,0.178-0.282,0.529-0.375,0.883
				c-0.127,0.485-0.157,0.979-0.183,1.042c-0.044,0.109-0.391,0.619-0.374,0.993c0.017,0.375,0.174,0.552,0.129,0.628
				s-1.375-0.089-1.934-0.229c-0.558-0.139-1.978-0.546-2.305-0.574c-0.326-0.027-1.334,0.034-1.502,0.144
				c-0.169,0.11-0.496,0.538-0.62,0.64c-0.124,0.101-0.694,0.322-0.805,0.388c-0.111,0.066-0.771,0.447-0.894,0.479
				c-0.122,0.033-0.713,0.121-0.954,0.225c-0.241,0.103-0.262,0.271-0.432,0.366c-0.171,0.094-1.011,0.581-1.069,0.591
				c-0.059,0.01-0.329-0.015-0.395,0.027c-0.065,0.043-0.181,0.37-0.439,0.548c-0.204,0.141-0.696,0.431-0.717,0.622
				c-0.021,0.191,0.355,0.44,0.728,0.587S5.967,24.739,6.02,24.7c0.052-0.04-0.015-0.166,0.017-0.209
				c0.031-0.042,0.357-0.067,0.372-0.101c0.014-0.034-0.066-0.094-0.056-0.132c0.01-0.037,0.265-0.074,0.354-0.296
				c0.089-0.223,0.089-0.346,0.191-0.405C7,23.497,7.691,23.563,8.091,23.349s0.448-0.568,1.542-1.216
				c1.094-0.646,2.227-0.537,2.718-0.411c0.491,0.128,1.953,0.969,1.953,0.969s-1.407,0.383-1.592,0.459
				c-0.186,0.076-0.506,0.349-0.633,0.405c-0.128,0.057-0.493,0.205-0.633,0.354s-0.464,0.854-0.871,1.298
				c-0.406,0.444-1.318,0.799-1.594,1.058s-0.507,0.743-0.785,1.056c-0.279,0.312-0.864,0.458-0.937,0.54
				c-0.074,0.081-0.113,0.284-0.152,0.396c-0.04,0.113-0.978,0.916-0.885,1.206c0.045,0.141,0.51,0.269,0.986,0.284
				c0.499,0.016,1.01-0.084,1.065-0.123c0.144-0.101,0.105-0.275,0.133-0.337s0.343-0.236,0.414-0.38
				c0.071-0.144-0.003-0.413,0.025-0.498s0.22-0.254,0.372-0.271s0.82-0.302,1.039-0.515c0.239-0.233,0.228-0.689,0.707-1.271
				c0.297-0.361,0.822-0.694,1.336-1.076c1.125-0.835,2.458-0.667,3.039-0.661"/>
			<path fill="none" stroke="#010101" stroke-width="0.5" stroke-linecap="round" stroke-miterlimit="10" d="M21.513,4.798
				c-0.194-0.069-0.759-0.292-0.764-0.552c-0.005-0.315,1.042-1.368,0.836-1.469s-1.483,0.709-1.942,0.557
				c-0.458-0.152-1.076-0.889-1.231-0.844c-0.156,0.045-0.202,0.732-0.348,0.87c-0.058,0.055-0.114,0.024-0.248,0.093
				c-0.201,0.104-0.506,0.309-0.691,0.354c-0.148,0.037-0.832,0.19-1.279,0.373c-0.479,0.194-0.925,0.479-0.999,0.481
				c-0.144,0.003-1.652,0.414-1.84,0.549s-0.425,0.458-0.481,0.532c-0.056,0.073-0.31,0.177-0.438,0.372
				c-0.13,0.194-0.017,1.365,0.236,1.562c0.253,0.197,0.811,0.591,0.946,0.597c0.135,0.005,0.422-0.343,0.551-0.36
				c0.129-0.017,1.092,0.338,1.706,0.799c0.456,0.343,1.206,0.326,1.646,0.278"/>
			<path fill="none" stroke="#010101" stroke-width="0.5" stroke-linecap="round" stroke-miterlimit="10" d="M26.081,6.269
				c-0.247-0.256-0.534-0.504-0.865-0.723c-1.346-0.891-2.966-0.803-3.477-0.748"/>
			<path fill="none" stroke="#010101" stroke-width="0.5" stroke-linecap="round" stroke-miterlimit="10" d="M27.315,8.172
				c-0.139-0.343-0.473-1.053-1.083-1.739"/>
		</g>
		<path fill="none" stroke="#010101" stroke-width="0.5" stroke-linecap="round" stroke-miterlimit="10" d="M36.419,20.102
			c0,0-1.655,0.138-2.972-0.378c-1.155-0.452-2.071-1.468-2.111-1.786c-0.074-0.592,0.585-0.735,0.585-1.405
			c0-0.855-1.553-1.644-1.182-2.162c0.371-0.518,1.717,0.293,1.717,0.293s-0.231-0.873-0.743-1.486
			c-0.512-0.614-1.109-0.732-1.109-0.732s0.799-0.191,1.047-0.636c0.248-0.444,0.096-1.069,0.096-1.069s-0.518,0.766-1.548,0.681
			s-1.818-1.267-1.818-1.267s0.141-0.168,0.355-0.304c0.213-0.135,0.534-0.236,0.534-0.236s-0.09-0.197-0.597-0.45
			c-0.506-0.253-1.115-0.304-1.115-0.304s0.546-0.141,0.692-0.878c0.147-0.737-0.022-1.16-0.022-1.16s-0.117,0.079-0.168,0.301
			c-0.058,0.246-0.025,0.645-0.194,0.801c-0.32,0.298-0.788,0.264-0.895,0.256c-0.094-0.007-0.78-0.05-1.613-0.458
			c-0.833-0.408-1.174-0.761-1.137-0.872c0.045-0.135,1.193,0.169,1.795-0.236c0.483-0.325,0.507-0.788,0.507-0.788
			s-0.367,0.479-0.654,0.546c-0.362,0.084-0.768-0.225-1.13-0.315c-1.008-0.253-1.976,0.653-1.976,0.653s-0.152-0.152,0.169-0.603
			c0.462-0.649,1.17-0.675,1.17-0.675s-0.617-0.21-1.182,0.045c-1.024,0.462-1.469,1.368-1.469,1.368l0.332-2.375L20.26,6.3
			c0,0-0.338-0.222-1.064,0.242c-0.726,0.464-0.784,0.951-0.784,0.951l-1.068-0.332l0.596,0.861c0,0-0.76,0.918-1.463,1.888
			c-0.63,0.869-1.21,1.794-1.246,1.896c-0.076,0.214-0.114,0.321-0.055,0.595c0.06,0.274,0.722,1.178,1.081,1.283
			s0.839,0.11,1.169-0.057c0.299-0.152,0.202-0.703,0.578-0.889c0.376-0.186,1.19,0.047,1.706,0.017
			c0.515-0.029,1.03-0.642,1.372-0.409c0.341,0.232,0.238,1.323,0.283,1.878c0.045,0.555,0.346,2.077,0.161,3.166
			c-0.075,0.44-0.374,0.989-0.622,1.487c-0.367,0.735-0.704,1.358-0.704,1.358s-1.911-0.275-2.586-0.006
			c-0.676,0.271-1.18,1.472-1.188,1.509c-0.017,0.079,0.565,1.57,0.565,1.57s-0.498,0.013-0.715,0.082
			c-0.214,0.069-0.92,0.932-0.965,1.333c-0.042,0.371,0.161,0.85,0.13,1.478c-0.032,0.629-0.229,2.411-0.135,2.691
			c0.094,0.279,0.381,0.739,0.411,0.942c0.03,0.202,0.485,2.406,1.013,2.499c0.457,0.081,1.503-1.317,1.503-1.431
			c0-0.114-0.585-1.068-0.692-1.145c-0.107-0.076-0.553-0.346-0.642-0.456c-0.089-0.109,0.076-0.464,0.059-0.557
			c-0.005-0.028-0.181-0.295-0.203-0.946c-0.021-0.625-0.108-1.806,0.08-2.368c0.232-0.692,0.713-0.595,0.713-0.595
			s0.074,0.875,0.118,0.945c0.025,0.039,1.11,0.62,2.19,1.076c0.889,0.377,1.775,0.646,2.057,0.646c0.625,0,0.558-0.287,0.482-0.625
			c-0.076-0.338-0.786-1.309-0.786-1.309s1.326,0.485,1.427,0.489c0.102,0.005,0.861-0.333,0.938-0.338
			c0.041-0.002,1.298,0.688,2.296,1.504c0.971,0.793,2.617,1.756,3.676,2.251c1.058,0.495,2.183,0.724,2.183,0.724 M19.488,22.961
			c-0.592,0.097-1.137,0.106-1.137,0.106s-0.338-1.146,0.078-1.358c0.388-0.197,2.657,0.841,2.652,0.886
			C21.078,22.62,20.24,22.838,19.488,22.961z"/>
		<path fill="#010101" d="M18.404,0C8.239,0,0,8.24,0,18.404s8.24,18.404,18.404,18.404c10.164,0,18.404-8.24,18.404-18.404
			S28.568,0,18.404,0z M18.404,36.223c-9.841,0-17.819-7.977-17.819-17.818c0-9.841,7.978-17.818,17.819-17.818
			c9.841,0,17.818,7.978,17.818,17.818C36.222,28.246,28.245,36.223,18.404,36.223z"/>
	</g>
	<g>
		<g>
			<path fill="#010101" d="M47.83,26.749h1.178v-9.124h-3.081v2.878h-1.33v-4.208h10.403v4.208h-1.33v-2.878H50.59v9.124h1.178v1.33
				H47.83V26.749z"/>
			<path fill="#010101" d="M55.843,19.528h2.491v1.178h0.05c0.859-1.296,2.088-1.516,2.828-1.516c2.104,0,3.855,1.415,3.855,4.613
				c0,3.316-1.869,4.612-3.821,4.612c-0.336,0-2.054-0.084-2.811-1.565v3.299h1.111v1.044h-3.703v-1.044h1.111v-9.578h-1.111V19.528
				z M60.977,27.372c1.195,0,2.525-0.842,2.525-3.568c0-2.223-0.926-3.569-2.609-3.569c-0.757,0-2.559,0.371-2.559,3.603
				C58.334,26.48,59.849,27.372,60.977,27.372z"/>
			<path fill="#010101" d="M70.724,19.19c3.114,0,4.209,2.341,4.209,4.613s-1.096,4.612-4.209,4.612
				c-3.115,0-4.208-2.34-4.208-4.612S67.609,19.19,70.724,19.19z M70.724,27.372c0.657,0,2.643-0.151,2.643-3.585
				c0-3.435-1.986-3.586-2.643-3.586s-2.643,0.151-2.643,3.586C68.081,27.221,70.067,27.372,70.724,27.372z"/>
			<path fill="#010101" d="M77.441,27.035v-6.464H76.33v-1.043h3.705v1.043h-1.111v5.774l4.375-6.817h2.762v1.043h-1.111v6.464
				h1.111v1.044h-3.703v-1.044h1.111v-5.79l-4.361,6.834H76.33v-1.044H77.441z M82.711,16.295h1.313
				c-0.252,1.414-1.229,2.256-2.93,2.256c-1.699,0-2.676-0.842-2.928-2.256h1.313c0.117,0.859,0.725,1.296,1.615,1.296
				C81.986,17.592,82.594,17.154,82.711,16.295z"/>
			<path fill="#010101" d="M90,27.035h1.111v1.044h-3.703v-1.044h1.109v-6.464h-1.109v-1.043h3.703v1.043H90V27.035z M92.98,20.571
				h-0.826v-1.043h3.334v1.043h-0.977l-2.559,2.979l2.793,3.484h1.129v1.044h-1.953l-3.5-4.478L92.98,20.571z"/>
			<path fill="#010101" d="M102.441,26.867c-0.59,1.077-1.768,1.549-2.93,1.549c-1.801,0-3.014-0.774-3.014-2.576
				c0-1.48,0.758-2.39,4.191-2.71c1.264-0.084,1.666-0.067,1.666-1.179c0-0.403-0.033-1.717-1.918-1.717
				c-0.539,0-2.273,0.034-2.223,1.818h-1.414c0-1.145,0.607-2.862,3.637-2.862c1.381,0,3.451,0.388,3.4,2.879v4.966h1.076v1.044
				h-2.473V26.867z M102.355,23.702c-0.438,0.337-0.941,0.286-1.885,0.421c-1.313,0.219-2.441,0.27-2.441,1.667
				c0,1.01,0.691,1.582,1.65,1.582c1.162,0,2.676-0.774,2.676-3.063V23.702z"/>
			<path fill="#010101" d="M106.295,22.878h4.563v1.329h-4.563V22.878z"/>
			<path fill="#010101" d="M114.51,26.749h1.18v-9.124h-3.082v2.878h-1.328v-4.208h10.402v4.208h-1.33v-2.878h-3.08v9.124h1.178
				v1.33h-3.939V26.749z"/>
			<path fill="#010101" d="M122.271,19.528h3.889v1.043h-1.045l2.34,5.875l1.92-5.875h-1.078v-1.043H132v1.043h-1.16l-3.973,10.622
				h-2.357v-1.044h1.465l0.725-2.07l-3.301-7.508h-1.127V19.528z"/>
			<path fill="#010101" d="M132.506,19.528h2.492v1.178h0.051c0.857-1.296,2.086-1.516,2.828-1.516c2.104,0,3.854,1.415,3.854,4.613
				c0,3.316-1.867,4.612-3.82,4.612c-0.336,0-2.053-0.084-2.811-1.565v3.299h1.111v1.044h-3.705v-1.044h1.111v-9.578h-1.111V19.528z
				 M137.641,27.372c1.195,0,2.525-0.842,2.525-3.568c0-2.223-0.926-3.569-2.609-3.569c-0.758,0-2.559,0.371-2.559,3.603
				C134.998,26.48,136.514,27.372,137.641,27.372z"/>
		</g>
		<g>
			<path fill="#676E78" d="M46.799,10.7h-0.591V6.141h-1.61V5.616h3.811v0.525h-1.61V10.7z"/>
			<path fill="#676E78" d="M48.481,6.889h0.619l0.834,2.173c0.183,0.496,0.297,0.854,0.341,1.074h0.028
				c0.03-0.118,0.093-0.32,0.189-0.606c0.096-0.287,0.411-1.167,0.944-2.641h0.619l-1.638,4.34
				c-0.162,0.429-0.352,0.733-0.568,0.913s-0.483,0.27-0.798,0.27c-0.176,0-0.35-0.02-0.521-0.059v-0.462
				c0.127,0.028,0.27,0.042,0.428,0.042c0.396,0,0.679-0.223,0.849-0.667l0.212-0.542L48.481,6.889z"/>
			<path fill="#676E78" d="M54.449,10.769c-0.248,0-0.475-0.045-0.68-0.137c-0.205-0.091-0.377-0.232-0.517-0.422h-0.042
				c0.028,0.223,0.042,0.434,0.042,0.633v1.568h-0.577V6.889h0.47l0.08,0.521h0.027c0.148-0.208,0.321-0.359,0.518-0.452
				c0.197-0.093,0.423-0.139,0.678-0.139c0.505,0,0.896,0.173,1.17,0.518c0.274,0.346,0.412,0.83,0.412,1.454
				c0,0.626-0.14,1.112-0.419,1.459C55.333,10.596,54.945,10.769,54.449,10.769z M54.365,7.31c-0.389,0-0.671,0.107-0.845,0.323
				c-0.174,0.215-0.263,0.559-0.268,1.029v0.128c0,0.536,0.089,0.919,0.268,1.149c0.178,0.231,0.465,0.346,0.859,0.346
				c0.329,0,0.587-0.133,0.774-0.4c0.186-0.266,0.28-0.634,0.28-1.102c0-0.475-0.094-0.84-0.28-1.094
				C54.966,7.437,54.704,7.31,54.365,7.31z"/>
			<path fill="#676E78" d="M60.329,8.791c0,0.622-0.156,1.106-0.469,1.456c-0.313,0.349-0.746,0.523-1.297,0.523
				c-0.341,0-0.643-0.08-0.908-0.24c-0.264-0.16-0.468-0.39-0.612-0.688s-0.216-0.649-0.216-1.05c0-0.621,0.156-1.105,0.466-1.452
				s0.742-0.52,1.293-0.52c0.533,0,0.957,0.177,1.271,0.532C60.172,7.706,60.329,8.186,60.329,8.791z M57.425,8.791
				c0,0.487,0.098,0.858,0.292,1.113c0.194,0.255,0.481,0.383,0.859,0.383s0.665-0.127,0.86-0.381s0.294-0.625,0.294-1.115
				c0-0.484-0.098-0.853-0.294-1.104S58.952,7.31,58.569,7.31c-0.378,0-0.663,0.124-0.855,0.372
				C57.521,7.93,57.425,8.299,57.425,8.791z"/>
			<path fill="#676E78" d="M61.918,10.7h-0.577V6.889h3.199V10.7h-0.584V7.389h-2.038V10.7z"/>
			<path fill="#676E78" d="M67.374,10.769c-0.563,0-1.007-0.171-1.333-0.514c-0.326-0.343-0.489-0.82-0.489-1.429
				c0-0.615,0.151-1.103,0.454-1.464C66.309,7,66.715,6.819,67.225,6.819c0.477,0,0.855,0.157,1.133,0.471
				c0.278,0.314,0.417,0.729,0.417,1.243v0.365H66.15c0.012,0.447,0.125,0.787,0.339,1.019c0.214,0.232,0.517,0.348,0.906,0.348
				c0.411,0,0.816-0.086,1.217-0.257v0.515c-0.204,0.088-0.397,0.151-0.579,0.189S67.632,10.769,67.374,10.769z M67.218,7.302
				c-0.306,0-0.55,0.1-0.732,0.299c-0.182,0.2-0.289,0.476-0.322,0.828h1.993c0-0.364-0.081-0.643-0.243-0.836
				C67.751,7.399,67.519,7.302,67.218,7.302z"/>
			<path fill="#676E78" d="M71.533,10.769c-0.248,0-0.474-0.045-0.68-0.137c-0.205-0.091-0.377-0.232-0.517-0.422h-0.042
				c0.028,0.223,0.042,0.434,0.042,0.633v1.568H69.76V6.889h0.47l0.08,0.521h0.027c0.148-0.208,0.321-0.359,0.519-0.452
				c0.197-0.093,0.423-0.139,0.678-0.139c0.506,0,0.895,0.173,1.17,0.518c0.275,0.346,0.412,0.83,0.412,1.454
				c0,0.626-0.139,1.112-0.418,1.459C72.416,10.596,72.029,10.769,71.533,10.769z M71.449,7.31c-0.389,0-0.67,0.107-0.844,0.323
				c-0.174,0.215-0.263,0.559-0.268,1.029v0.128c0,0.536,0.089,0.919,0.268,1.149c0.179,0.231,0.465,0.346,0.859,0.346
				c0.329,0,0.587-0.133,0.772-0.4c0.188-0.266,0.281-0.634,0.281-1.102c0-0.475-0.094-0.84-0.281-1.094
				C72.051,7.437,71.789,7.31,71.449,7.31z"/>
			<path fill="#676E78" d="M76.469,10.7l-0.115-0.542h-0.027c-0.191,0.239-0.381,0.4-0.568,0.485
				c-0.189,0.084-0.426,0.126-0.709,0.126c-0.377,0-0.674-0.097-0.889-0.292c-0.213-0.195-0.32-0.472-0.32-0.831
				c0-0.77,0.615-1.173,1.846-1.21l0.646-0.021V8.179c0-0.299-0.064-0.52-0.191-0.663c-0.129-0.143-0.336-0.214-0.619-0.214
				c-0.316,0-0.676,0.098-1.076,0.292l-0.178-0.441c0.188-0.102,0.393-0.182,0.617-0.24c0.223-0.058,0.447-0.086,0.672-0.086
				c0.455,0,0.791,0.101,1.012,0.302c0.219,0.202,0.328,0.525,0.328,0.97V10.7H76.469z M75.164,10.293
				c0.359,0,0.641-0.099,0.848-0.295c0.205-0.197,0.307-0.473,0.307-0.828V8.826L75.742,8.85c-0.459,0.016-0.791,0.088-0.994,0.214
				c-0.203,0.126-0.303,0.323-0.303,0.59c0,0.208,0.063,0.367,0.188,0.476C74.76,10.238,74.938,10.293,75.164,10.293z"/>
			<path fill="#676E78" d="M80.654,7.382h-1.236V10.7H78.84V7.382h-1.225V6.889h3.039V7.382z"/>
			<path fill="#676E78" d="M84.699,8.791c0,0.622-0.156,1.106-0.469,1.456c-0.314,0.349-0.746,0.523-1.297,0.523
				c-0.342,0-0.645-0.08-0.908-0.24s-0.469-0.39-0.613-0.688c-0.143-0.299-0.215-0.649-0.215-1.05c0-0.621,0.156-1.105,0.467-1.452
				s0.742-0.52,1.293-0.52c0.533,0,0.957,0.177,1.271,0.532C84.543,7.706,84.699,8.186,84.699,8.791z M81.795,8.791
				c0,0.487,0.098,0.858,0.293,1.113c0.195,0.255,0.48,0.383,0.859,0.383c0.377,0,0.664-0.127,0.859-0.381
				c0.197-0.254,0.295-0.625,0.295-1.115c0-0.484-0.098-0.853-0.295-1.104c-0.195-0.251-0.484-0.377-0.867-0.377
				c-0.377,0-0.662,0.124-0.855,0.372C81.893,7.93,81.795,8.299,81.795,8.791z"/>
			<path fill="#676E78" d="M87.484,10.769c-0.248,0-0.475-0.045-0.68-0.137c-0.205-0.091-0.377-0.232-0.516-0.422h-0.043
				c0.029,0.223,0.043,0.434,0.043,0.633v1.568h-0.578V6.889h0.469l0.08,0.521h0.029c0.148-0.208,0.32-0.359,0.518-0.452
				s0.424-0.139,0.678-0.139c0.506,0,0.896,0.173,1.17,0.518c0.275,0.346,0.412,0.83,0.412,1.454c0,0.626-0.139,1.112-0.418,1.459
				S87.98,10.769,87.484,10.769z M87.4,7.31c-0.389,0-0.67,0.107-0.844,0.323c-0.174,0.215-0.264,0.559-0.268,1.029v0.128
				c0,0.536,0.088,0.919,0.268,1.149c0.178,0.231,0.465,0.346,0.857,0.346c0.33,0,0.588-0.133,0.775-0.4
				c0.186-0.266,0.279-0.634,0.279-1.102c0-0.475-0.094-0.84-0.279-1.094C88.002,7.437,87.74,7.31,87.4,7.31z"/>
		</g>
	</g>
</g>
</svg>
